**ABCDEFGHIJKLMNOPQRSTUVWXYZabcdefghijklmnopqrstuvwxyz**************************
**PARASOLID !"#$%&'()*+,-./:;<=>?@[\]^_`{|}~0123456789**************************
**PART1;
MC=unknown;
MC_MODEL=unknown;
MC_ID=unknown;
OS=unknown;
OS_RELEASE=unknown;
FRU=Parasolid 36.0.180;
APPL=Onshape;
SITE=unknown;
USER=unknown;
FORMAT=text;
GUISE=transmit;
KEY=BTGapi::writeModels_.xmt;
FILE=BTGapi::writeModels_.xmt;
DATE=2024-07-04T09:25:32 (UTC);
**PART2;
SCH=SCH_3600180_36001;
USFLD_SIZE=0;
**PART3;
**END_OF_HEADER*****************************************************************
T51 : TRANSMIT FILE created by modeller version 360018023 SCH_3600180_36001_1300
6231 0 12 36 CCCI7 lattice222 0 CCCI4 mesh1006 0 I8 polyline1008 0 CCCCCCCDI5 ow
ner1040 0 CCCI16 boundary_lattice222 0 CCCI13 boundary_mesh1006 0 I17 boundary_p
olyline1008 0 CCCA16 index_map_offset0 0 1 dA9 index_map82 0 A17 node_id_index_m
ap82 0 A20 schema_embedding_map82 0 A5 child12 0 A14 lowest_node_id0 0 1 dA16 me
sh_offset_data206 0 Z1 1320 2 3 0 0 0 0 0 0 0 1e3 1e-8 0 4 5 1 0 1 2 6 0 7 8 9 0
 0 10 11 12 0 0 0 0 0 0 0 81 255 1 2 1296 13 1 14 0 0 0 15 70 11 CI9 list_type0
 0 1 uI10 notransmit0 0 1 lCCCDCCDI12 finger_index0 0 1 dI12 finger_block1012 0
 CZ3 0 4 T1 0 0 5 20 1 16 16 13 255 6 181 0 1 0 17 0 0 18 0 50 255 7 176 0 19 20
 0 0 +.12 .0982299008220434 -.00255437195301055 0 1 0 1 0 0 30 255 8 912 0 11 21
 0 0 +.12 .02421318551525475 -.178010223031044 -1 0 0 29 255 9 956 0 12 22 0 .03
814797103405 .02421318551525475 .028989776968956 19 9 CCCCCCI5 frame230 0 CA5 ow
ner12 0 Z10 77 0 1 18 0 23 0 V0 16 255 11 910 24 ?25 0 26 8 0 0 1 18 255 12 954
 27 28 0 29 9 ?1 81 1 27 1253 30 12 0 0 31 32 33 17 255 28 0 34 35 36 12 37 38 0
 39 +18 29 936 40 41 12 42 22 ?1 81 1 40 1256 30 29 0 0 43 44 45 17 41 0 46 47 4
8 29 49 50 0 51 +18 42 919 52 53 29 54 55 ?1 29 22 938 0 29 55 9 .03814797103405
 .004213185515254735 -.181010223031044 29 55 921 0 42 56 22 .03814797103405 .004
213185515254735 .025989776968956 29 56 897 0 54 57 55 .03814797103405 .024213185
51525475 -.178010223031044 18 54 895 58 59 42 60 56 ?1 29 57 679 0 60 61 56 .117
 -.0217700991779566 -.0732874097983539 18 60 675 62 63 54 64 57 ?1 29 61 668 0 6
4 65 57 .003 -.0217700991779566 -.130733036263734 18 64 664 66 67 60 68 61 ?1 29
 65 453 0 68 69 61 .117 -.0217700991779566 .025989776968956 18 68 451 70 71 64 7
2 65 ?1 29 69 256 0 72 73 65 0 .0982299008220434 -.02900066040456295 18 72 252 7
4 75 68 76 69 ?1 29 73 157 0 77 78 69 0 .0982299008220434 -.181010223031044 18 7
7 136 79 80 81 82 73 ?1 29 78 158 0 82 83 73 0 -.0217700991779566 -.181010223031
044 18 82 140 84 85 77 86 78 ?1 29 83 159 0 86 87 78 0 -.0217700991779566 .02898
9776968956 18 86 144 88 89 82 90 83 ?1 29 87 73 0 76 91 83 .12 .0982299008220434
 -.181010223031044 18 76 71 92 93 72 94 87 ?1 29 91 68 0 94 95 87 .12 -.02177009
91779566 -.181010223031044 18 94 66 96 97 76 81 91 ?1 29 95 63 0 81 98 91 .12 -.
0217700991779566 .028989776968956 18 81 61 99 100 94 77 95 ?1 29 98 404 0 101 10
2 95 .12 .0566705316305161 .028989776968956 18 101 366 103 104 90 105 98 ?1 29 1
02 406 0 105 106 98 .12 .0982299008220434 -.02900066040456295 18 105 358 107 108
 101 109 102 ?1 29 106 407 0 90 110 102 0 .0566705316305161 .028989776968956 18
 90 356 111 112 86 101 106 ?1 29 110 563 0 113 114 106 .117 -.0217700991779566 -
.178010223031044 18 113 504 115 116 117 118 110 ?1 29 114 564 0 119 120 110 .003
 -.0217700991779566 -.178010223031044 18 119 508 121 122 118 123 114 ?1 29 120 5
65 0 123 124 114 .003 -.0217700991779566 .025989776968956 18 123 500 125 126 119
 127 120 ?1 29 124 567 0 127 128 120 .003 .0551296549288228 .025989776968956 18
 127 514 129 130 123 131 124 ?1 29 128 568 0 131 132 124 .117 .0551296549288228
 .025989776968956 18 131 516 133 134 127 135 128 ?1 29 132 569 0 135 136 128 .11
7 .0952299008220434 -.02996465264273315 18 135 510 137 138 131 139 132 ?1 29 136
 570 0 117 140 132 .117 .0952299008220434 -.178010223031044 18 117 498 141 142 1
09 113 136 ?1 29 140 571 0 109 143 136 .003 .0952299008220434 -.0299646526427331
5 18 109 512 144 145 105 117 140 ?1 29 143 572 0 118 146 140 .003 .0952299008220
434 -.178010223031044 18 118 506 147 148 113 119 143 ?1 29 146 845 0 139 149 143
 .117 -.0217700991779566 -.130733036263734 18 139 799 150 151 135 152 146 ?1 29
 149 846 0 152 153 146 .003 -.0217700991779566 -.0732874097983539 18 152 800 154
 155 139 156 149 ?1 29 153 848 0 156 157 149 .12 -.0217700991779566 -.0732874097
983539 18 156 804 158 159 152 160 153 ?1 29 157 849 0 160 161 153 .12 -.02177009
91779566 -.130733036263734 18 160 798 162 163 156 164 157 ?1 29 161 850 0 164 16
5 157 0 -.0217700991779566 -.0732874097983539 18 164 797 166 167 160 168 161 ?1
 29 165 851 0 168 169 161 0 -.0217700991779566 -.130733036263734 18 168 803 170
 171 164 172 165 ?1 29 169 1212 0 172 173 165 .08314797103405 .02421318551525475
 -.178010223031044 18 172 1110 174 175 168 176 169 ?1 29 173 1213 0 176 177 169
 .08314797103405 .02421318551525475 .025989776968956 18 176 1108 178 179 172 180
 173 ?1 29 177 1214 0 180 181 173 .08314797103405 .004213185515254735 -.17801022
3031044 18 180 1114 182 183 176 184 177 ?1 29 181 1215 0 184 185 177 .0831479710
3405 .004213185515254735 .025989776968956 18 184 1113 186 187 180 188 181 ?1 29
 185 1217 0 188 189 181 .03814797103405 .02421318551525475 .025989776968956 18 1
88 1123 190 191 184 192 185 ?1 29 189 1218 0 192 193 185 .03814797103405 .004213
185515254735 -.178010223031044 18 192 1118 194 195 188 196 189 ?1 29 193 1220 0
 197 198 189 .03814797103405 .02421318551525475 -.181010223031044 18 197 1121 31
 199 200 201 193 ?1 29 198 1222 0 201 202 193 .08314797103405 .00421318551525473
5 -.181010223031044 18 201 1115 32 48 197 203 198 ?1 29 202 1223 0 203 204 198 .
08314797103405 .02421318551525475 -.181010223031044 18 203 1111 205 206 201 0 20
2 ?1 29 204 1225 0 196 207 202 .03814797103405 .004213185515254735 .028989776968
956 18 196 1130 44 208 192 209 204 ?1 29 207 1226 0 209 210 204 .08314797103405
 .004213185515254735 .028989776968956 18 209 1128 43 211 196 200 207 ?1 29 210 1
227 0 200 0 207 .08314797103405 .02421318551525475 .028989776968956 18 200 1126
 212 36 209 197 210 ?1 81 1 212 1251 30 200 0 0 205 31 213 17 36 0 34 28 179 200
 214 215 0 216 -15 255 34 1167 0 36 217 0 17 179 0 34 36 35 176 218 219 0 214 -1
7 214 0 220 187 216 176 36 215 0 221 +16 215 1060 222 ?214 223 224 225 224 224 1
 17 216 0 220 214 211 200 226 227 0 37 -15 220 1171 0 187 228 0 17 211 0 220 216
 187 209 229 230 0 231 -17 226 0 232 233 37 209 216 227 0 0 +16 227 1066 234 ?22
6 235 38 236 0 0 1 17 37 0 232 226 237 200 28 38 0 0 -15 232 970 0 37 17 0 17 23
7 0 232 37 233 12 238 239 0 0 -16 38 1088 240 ?28 227 241 242 0 0 1 81 1 240 126
2 30 38 0 0 243 244 245 16 241 1055 243 ?246 38 50 247 0 0 1 30 242 1211 0 38 0
 236 0 +.06064797103405 .02421318551525475 .028989776968956 -1 0 0 30 236 1210 0
 227 242 248 0 +.08314797103405 .01421318551525474 .028989776968956 0 -1 0 30 24
8 1209 0 235 236 249 0 +.06064797103405 .004213185515254735 .028989776968956 -1
 0 0 16 235 1074 244 ?233 239 227 248 0 0 1 30 249 1208 0 239 248 250 0 +.038147
97103405 .01421318551525474 .028989776968956 0 -1 0 16 239 1093 251 ?238 252 235
 249 0 0 1 30 250 1207 0 253 249 254 0 +.06064797103405 .02421318551525475 -.181
010223031044 -1 0 0 16 253 1017 255 ?256 257 0 250 0 0 1 30 254 1206 0 257 250 2
58 0 +.08314797103405 .01421318551525474 -.181010223031044 0 -1 0 16 257 1098 25
9 ?260 50 253 254 0 0 1 30 258 1205 0 50 254 247 0 +.06064797103405 .00421318551
5254735 -.181010223031044 -1 0 0 16 50 1103 261 ?41 241 257 258 0 0 1 30 247 120
4 0 241 258 262 0 +.03814797103405 .01421318551525474 -.181010223031044 0 -1 0 3
0 262 1203 0 263 247 264 0 +.03814797103405 .02421318551525475 .028989776968956
 0 0 -1 16 263 1082 265 ?35 266 252 262 252 252 1 30 264 1202 0 267 262 268 0 +.
03814797103405 .004213185515254735 .028989776968956 0 0 -1 16 267 1079 269 ?53 2
70 266 264 266 266 1 30 268 1201 0 230 264 225 0 +.08314797103405 .0042131855152
54735 .028989776968956 0 0 -1 16 230 1071 271 ?229 224 270 268 270 270 1 30 225
 1200 0 215 268 272 0 +.08314797103405 .02421318551525475 .028989776968956 0 0 -
1 30 272 1199 0 223 225 273 0 +.03814797103405 .0766760860010982 .02598977696895
6 0 -1 0 16 223 1085 274 ?275 276 215 272 0 0 1 30 273 1198 0 276 272 277 0 +.12
 .004213185515254735 .025989776968956 -1 0 0 16 276 1034 278 ?279 280 223 273 0
 0 1 30 277 1197 0 280 273 281 0 +.08314797103405 .0766760860010982 .02598977696
8956 0 -1 0 16 280 1022 282 ?187 219 276 277 0 0 1 30 281 1196 0 219 277 283 0 +
.12 .02421318551525475 .025989776968956 -1 0 0 16 219 1063 284 ?218 285 280 281
 0 0 1 31 255 283 843 0 286 281 287 0 +0 -.001770099177956575 -.102010223031044
 1 0 0 0 -1 0 .035 16 286 774 288 ?289 290 285 283 0 0 1 31 287 842 0 285 283 29
1 0 +.12 -.001770099177956575 -.102010223031044 1 0 0 0 -1 0 .035 16 285 757 292
 ?159 286 219 287 0 0 1 30 291 841 0 290 287 293 0 -0 -.0217700991779566 -.13073
3036263734 1 0 0 16 290 782 294 ?295 296 286 291 297 297 1 30 293 840 0 296 291
 298 0 +0 -.0217700991779566 -.0732874097983539 1 0 0 16 296 779 299 ?300 301 29
0 293 302 302 1 31 298 839 0 301 293 303 0 +.117 -.001770099177956575 -.10201022
3031044 1 0 0 0 -1 0 .035 16 301 765 304 ?305 297 296 298 0 0 1 30 303 562 0 306
 298 307 0 +.003 .0952299008220434 -.00255437195301055 0 0 -1 16 306 482 308 ?14
8 309 310 303 0 0 1 30 307 561 0 310 303 311 0 +.12 .0952299008220434 -.02996465
264273315 1 0 0 16 310 468 312 ?313 306 314 307 0 0 1 30 311 560 0 315 307 316 0
 +.117 .0952299008220434 -.00255437195301055 0 0 -1 16 315 470 317 ?142 318 319
 311 0 0 1 30 316 559 0 320 311 321 0 +.12 .0952299008220434 -.178010223031044 -
1 0 0 16 320 472 322 ?323 324 325 316 0 0 1 30 321 558 0 326 316 327 0 +.117 .09
76901049264963 -.0333975322754306 0 -.582514827456912 .81282007590416 16 326 476
 328 ?329 330 302 321 0 0 1 30 327 557 0 318 321 331 0 +.117 .0766760860010982 .
025989776968956 0 -1 0 16 318 478 332 ?333 334 315 327 0 0 1 30 331 556 0 325 32
7 335 0 +.117 .0382299008220434 -.178010223031044 0 -1 0 16 325 490 336 ?337 320
 338 331 0 0 1 30 335 555 0 314 331 339 0 +.12 .0551296549288228 .02598977696895
6 1 0 0 16 314 496 340 ?134 310 330 335 0 0 1 30 339 554 0 309 335 341 0 +.003 .
0766760860010982 .025989776968956 0 -1 0 16 309 474 342 ?126 343 306 339 0 0 1 3
0 341 553 0 330 339 344 0 +.003 .0976901049264963 -.0333975322754306 0 -.5825148
27456912 .81282007590416 16 330 494 345 ?130 314 326 341 0 0 1 30 344 552 0 319
 341 346 0 +.003 .0382299008220434 -.178010223031044 0 -1 0 16 319 484 347 ?348
 315 349 344 0 0 1 30 346 551 0 338 344 350 0 +.117 -.0217700991779566 -.0760102
23031044 0 0 -1 16 338 480 351 ?352 325 334 346 334 334 1 30 350 550 0 353 346 3
54 0 +.12 -.0217700991779566 .025989776968956 -1 0 0 16 353 488 355 ?356 357 324
 350 0 0 1 30 354 549 0 349 350 358 0 +.003 -.0217700991779566 -.076010223031044
 0 0 -1 16 349 486 359 ?360 319 343 354 343 343 1 30 358 548 0 324 354 361 0 +.1
2 -.0217700991779566 -.178010223031044 -1 0 0 16 324 492 362 ?363 353 320 358 0
 0 1 30 361 403 0 364 358 365 0 +0 .0774502162262797 -544171780347824e-20 0 -.58
2514827456912 .81282007590416 16 364 341 366 ?112 367 357 361 0 0 1 30 365 400 0
 357 361 368 0 +.12 .0774502162262797 -544171780347824e-20 0 -.582514827456912 .
81282007590416 16 357 311 369 ?370 364 353 365 0 0 1 30 368 397 0 367 365 371 0
 +0 .0566705316305161 .028989776968956 1 0 0 16 367 336 372 ?104 373 364 368 0 0
 1 30 371 395 0 373 368 374 0 +0 .0982299008220434 -.02900066040456295 1 0 0 16
 373 316 375 ?376 377 367 371 0 0 1 30 374 13 0 378 371 379 0 +.12 .098229900822
0434 -.00255437195301055 0 0 -1 16 378 11 380 ?93 381 382 374 0 0 1 30 379 18 0
 381 374 383 0 +.12 .0766760860010982 .028989776968956 0 -1 0 16 381 16 384 ?100
 385 378 379 0 0 1 30 383 33 0 386 379 387 0 +.12 -.0217700991779566 -.076010223
031044 0 0 -1 16 386 31 388 ?389 390 385 383 385 385 1 30 387 38 0 390 383 391 0
 +.12 .0382299008220434 -.181010223031044 0 -1 0 16 390 36 392 ?393 394 386 387
 0 0 1 30 391 156 0 377 387 395 0 +0 .0982299008220434 -.00255437195301055 0 0 -
1 16 377 130 396 ?80 397 373 391 0 0 1 30 395 155 0 397 391 398 0 +0 .0766760860
010982 .028989776968956 0 -1 0 16 397 124 399 ?89 400 377 395 0 0 1 30 398 154 0
 401 395 402 0 +0 -.0217700991779566 -.076010223031044 0 0 -1 16 401 120 403 ?40
4 382 400 398 400 400 1 30 402 153 0 382 398 405 0 +0 .0382299008220434 -.181010
223031044 0 -1 0 16 382 116 406 ?407 378 401 402 0 0 1 30 405 177 0 394 402 408
 0 +.12 .0982299008220434 -.181010223031044 -1 0 0 16 394 161 409 ?410 411 390 4
05 0 0 1 30 408 178 0 411 405 412 0 +.12 -.0217700991779566 -.181010223031044 -1
 0 0 16 411 162 413 ?414 415 394 408 0 0 1 30 412 179 0 415 408 416 0 +.12 -.021
7700991779566 .028989776968956 -1 0 0 16 415 163 417 ?418 419 411 412 0 0 1 31 4
16 671 0 419 412 420 0 +.003 -.001770099177956575 -.102010223031044 1 0 0 0 -1 0
 .035 16 419 669 421 ?155 422 415 416 0 0 1 30 420 901 0 422 416 423 0 +.0381479
7103405 .0382299008220434 -.178010223031044 0 -1 0 16 422 899 424 ?195 425 419 4
20 0 0 1 30 423 905 0 425 420 21 0 +.12 .004213185515254735 -.178010223031044 -1
 0 0 16 425 903 426 ?427 26 422 423 0 0 1 30 21 909 0 26 423 8 0 +.0831479710340
5 .0382299008220434 -.178010223031044 0 -1 0 16 26 907 428 ?429 11 425 21 0 0 1
 81 1 428 1268 30 26 0 0 426 424 430 17 429 0 431 427 432 180 175 26 0 0 +15 431
 911 0 432 433 0 17 427 0 431 434 429 192 183 425 0 0 +17 432 0 431 429 434 172
 25 11 0 0 -17 175 0 435 206 436 172 429 26 0 437 -15 435 1147 0 206 438 0 17 20
6 0 435 260 175 203 437 224 0 439 +17 436 0 435 175 260 180 48 270 0 429 -17 437
 0 440 25 439 172 206 224 0 432 -15 440 1139 0 25 441 0 17 25 0 440 199 437 54 4
32 11 0 434 +17 439 0 440 437 199 203 256 253 0 442 -16 224 1014 443 ?206 215 23
0 225 215 215 1 81 1 443 1278 30 224 0 0 444 222 445 80 7 CCCCCDI12 legal_owners
0 17 1 lCZ1 30 446 447 9000 0 0 0 0 3 6 0 0 0 FFTFTFTTFFFFFFFFF1 81 1 444 1277 3
0 448 0 449 450 443 451 81 1 222 1279 30 215 0 0 443 452 453 82 255 3 445 22 16
 1 81 1 452 1280 30 252 0 0 222 265 454 82 3 453 22 17 1 16 252 1052 452 ?199 26
3 239 262 263 263 1 81 1 265 1281 30 263 0 0 452 455 456 82 3 454 22 18 1 81 1 4
55 1282 30 270 0 0 265 271 457 82 3 456 22 19 1 16 270 1031 455 ?48 230 267 268
 230 230 1 81 1 271 1283 30 230 0 0 455 458 459 82 3 457 22 20 1 81 1 458 1284 3
0 266 0 0 271 269 460 82 3 459 22 21 1 16 266 1043 458 ?51 267 263 264 267 267 1
 81 1 269 1285 30 267 0 0 458 461 462 82 3 460 22 22 1 81 1 461 1286 30 441 0 46
3 269 464 465 82 3 462 22 23 1 14 255 441 1136 463 ?217 438 440 6 466 +217 217 2
17 438 23 81 1 463 1316 467 441 461 0 468 469 470 81 1 464 1287 30 217 0 469 461
 471 472 82 3 465 22 4 2 14 217 1164 469 ?228 441 34 6 466 +441 441 228 441 23 8
1 1 469 1317 467 217 464 0 463 473 474 81 1 471 1288 30 475 0 476 464 477 478 82
 3 472 22 5 2 14 475 1152 476 ?438 479 46 6 480 -481 481 438 479 23 81 1 476 131
4 467 475 471 0 482 468 483 81 1 477 1289 30 481 0 484 471 485 486 82 3 478 22 6
 2 14 481 1172 484 ?487 228 488 6 480 -475 475 487 228 23 81 1 484 1319 467 481
 477 0 473 489 490 81 1 485 1290 30 438 0 468 477 491 492 82 3 486 22 7 2 14 438
 1144 468 ?441 475 435 6 493 -228 228 441 475 23 81 1 468 1315 467 438 485 0 476
 463 494 81 1 491 1291 30 228 0 473 485 495 496 82 3 492 22 8 2 14 228 1168 473
 ?481 217 220 6 493 -438 438 481 217 23 81 1 473 1318 467 228 491 0 469 484 497
 81 1 495 1292 30 479 0 482 491 498 499 82 3 496 22 9 2 14 479 1160 482 ?475 500
 501 6 502 +487 487 475 500 23 81 1 482 1313 467 479 495 0 503 476 504 81 1 498
 1293 30 487 0 489 495 0 505 82 3 499 22 10 2 14 487 1176 489 ?0 481 506 6 502 +
479 479 0 481 23 81 1 489 1320 467 487 498 0 484 0 507 82 3 505 22 11 2 80 1 467
 0 508 8001 0 0 0 0 3 5 0 0 0 FFFFTFTFFFFFFFFFF2 83 255 3 507 .615686274509804 .
811764705882353 .929411764705882 79 255 15 508 SDL/TYSA_COLOUR15 506 1179 0 39 4
87 0 50 502 1193 0 487 0 480 0 +.03814797103405 .01421318551525474 .028989776968
956 1 0 0 0 -1 0 13 23 78 0 0 0 0 0 0 10 17 14 17 170 509 ?510 0 511 6 20 -0 0 5
10 0 23 81 1 509 1297 467 17 512 0 0 513 514 14 510 166 513 ?448 17 515 6 516 +0
 0 448 17 23 15 511 283 0 517 17 232 50 20 175 0 17 518 7 0 +.12 .07667608600109
82 .028989776968956 0 0 -1 0 1 0 50 518 174 0 519 516 20 0 +.12 -.02177009917795
66 -.076010223031044 0 1 0 1 0 0 14 519 168 520 ?19 521 522 6 518 -521 521 19 52
1 23 50 516 173 0 510 523 518 0 +.12 .0382299008220434 -.181010223031044 0 0 -1
 0 1 0 50 523 152 0 524 525 516 0 +0 .0382299008220434 -.076010223031044 1 0 0 0
 0 -1 14 524 105 526 ?527 528 529 6 523 -0 0 527 528 23 50 525 3 0 528 530 523 0
 +.12 .0382299008220434 -.076010223031044 1 0 0 0 0 -1 14 528 1 531 ?524 19 532
 6 525 +0 0 524 19 23 50 530 390 0 527 533 525 0 +0 .0774502162262797 -544171780
347824e-20 0 .81282007590416 .582514827456912 0 -.582514827456912 .8128200759041
6 14 527 368 534 ?535 524 536 6 530 +0 0 535 524 23 50 533 541 0 537 538 530 0 +
0 .0750117559985673 -.001752986200174215 0 .81282007590416 .582514827456912 0 -.
582514827456912 .81282007590416 14 537 536 539 ?540 541 542 6 533 -0 0 540 541 2
3 50 538 542 0 433 543 533 0 +.12 .0382299008220434 -.178010223031044 0 0 -1 0 1
 0 14 433 533 544 ?521 448 545 6 538 -0 0 521 448 23 50 543 543 0 541 546 538 0
 +.003 .0382299008220434 -.076010223031044 1 0 0 0 0 -1 14 541 527 547 ?537 548
 549 6 543 +0 0 537 548 23 50 546 544 0 548 550 543 0 +.117 .0382299008220434 -.
076010223031044 1 0 0 0 0 -1 14 548 524 551 ?541 535 552 6 546 -0 0 541 535 23 5
0 550 545 0 448 553 546 0 +.12 .0766760860010982 .025989776968956 0 0 -1 0 1 0 1
4 448 521 449 ?433 510 554 6 550 +0 0 433 510 23 50 553 546 0 535 555 550 0 +.12
 .0952299008220434 -.00255437195301055 0 1 0 1 0 0 14 535 518 556 ?548 527 557 6
 553 -0 0 548 527 23 51 255 555 836 0 500 466 553 0 +0 -.001770099177956575 -.10
2010223031044 1 0 0 .035 0 -1 0 14 500 813 503 ?479 540 558 6 555 -540 540 479 5
40 23 50 466 1190 0 217 493 555 0 +.06064797103405 .02421318551525475 .028989776
968956 0 -1 0 -1 0 0 50 493 1191 0 228 480 466 0 +.08314797103405 .0142131855152
5474 .028989776968956 1 0 0 0 -1 0 50 480 1192 0 481 502 493 0 +.06064797103405
 .004213185515254735 .028989776968956 0 -1 0 -1 0 0 81 1 503 1312 467 500 559 0
 560 482 561 14 540 821 560 ?500 537 562 6 555 -500 500 500 537 23 15 558 816 0
 151 500 0 17 151 0 558 163 63 139 305 301 0 563 -17 163 0 558 159 151 160 563 2
97 0 564 -17 63 0 558 151 159 60 565 302 0 305 -17 305 0 552 71 566 60 151 301 0
 352 +17 563 0 522 116 567 139 163 297 0 566 +15 522 464 0 567 519 0 17 116 0 52
2 363 563 113 566 334 0 568 +17 567 0 522 563 569 160 97 385 0 0 -16 297 771 570
 ?563 302 301 291 290 290 1 17 566 0 552 305 337 139 116 334 0 0 -15 552 526 0 5
66 548 0 17 337 0 552 566 142 113 571 325 0 0 +16 334 681 572 ?116 338 318 346 3
38 338 1 81 1 572 874 30 334 0 0 351 573 574 81 1 351 873 30 338 0 0 575 572 576
 81 1 573 875 30 521 0 577 572 578 579 82 3 574 18 11 1 14 521 723 577 ?519 433
 580 6 518 -519 519 519 433 23 81 1 577 1301 467 521 573 0 544 520 581 81 1 578
 876 30 519 0 520 573 582 583 82 3 579 18 4 2 81 1 520 1302 467 519 578 0 577 58
4 585 81 1 582 877 30 540 0 560 578 559 586 82 3 583 18 5 2 81 1 560 1311 467 54
0 582 0 539 503 587 81 1 559 878 30 500 0 503 582 166 588 82 3 586 18 6 2 81 1 1
66 879 30 164 0 0 559 170 589 82 3 588 18 7 2 81 1 170 880 30 168 0 0 166 158 59
0 82 3 589 18 0 0 81 1 158 881 30 156 0 0 170 162 591 82 3 590 18 1 0 81 1 162 8
82 30 160 0 0 158 154 592 82 3 591 18 2 0 81 1 154 883 30 152 0 0 162 66 593 82
 3 592 18 3 0 81 1 66 884 30 64 0 0 154 62 594 82 3 593 18 4 0 81 1 62 885 30 60
 0 0 66 150 595 82 3 594 18 5 0 81 1 150 886 30 139 0 0 62 299 596 82 3 595 18 6
 0 81 1 299 887 30 296 0 0 150 597 598 82 3 596 18 7 0 81 1 597 888 30 302 0 0 2
99 294 599 82 3 598 18 12 1 16 302 768 597 ?565 326 297 293 296 296 1 81 1 294 8
89 30 290 0 0 597 570 600 82 3 599 18 13 1 81 1 570 890 30 297 0 0 294 174 601 8
2 3 600 18 14 1 81 1 174 1242 30 172 0 0 570 58 602 82 3 601 18 15 1 81 1 58 124
3 30 54 0 0 174 182 603 82 3 602 22 0 0 81 1 182 1244 30 180 0 0 58 194 604 82 3
 603 22 1 0 81 1 194 1245 30 192 0 0 182 178 605 82 3 604 22 2 0 81 1 178 1246 3
0 176 0 0 194 190 606 82 3 605 22 3 0 81 1 190 1247 30 188 0 0 178 186 607 82 3
 606 22 4 0 81 1 186 1248 30 184 0 0 190 52 608 82 3 607 22 5 0 81 1 52 1249 30
 42 0 0 186 205 609 82 3 608 22 6 0 81 1 205 1250 30 203 0 0 52 212 610 82 3 609
 22 7 0 82 3 610 22 8 0 17 565 0 580 611 352 156 63 302 0 389 +15 580 722 0 404
 521 0 17 611 0 580 418 565 81 389 386 0 0 -17 352 0 580 565 612 60 71 338 0 0 +
17 389 0 532 564 100 156 611 386 0 0 +15 532 716 0 564 528 0 17 564 0 532 97 389
 160 159 285 0 567 -17 100 0 532 389 370 81 613 381 0 614 +17 370 0 532 100 615
 101 108 357 0 613 +17 613 0 511 517 614 101 100 381 0 0 -17 614 0 511 613 89 81
 418 415 0 611 -17 89 0 511 614 517 86 616 397 0 418 +17 418 0 580 404 611 86 61
4 415 0 617 +17 404 0 580 300 418 164 617 401 0 0 +17 617 0 529 616 289 86 404 4
01 0 0 -15 529 263 0 618 524 0 17 616 0 529 619 617 90 89 397 0 0 -17 289 0 529
 617 618 164 171 286 0 404 +17 618 0 529 289 407 168 85 400 0 0 -17 171 0 562 67
 167 168 289 286 0 295 -15 562 820 0 171 540 0 17 67 0 562 155 171 64 295 290 0
 620 -17 167 0 562 171 155 164 300 296 0 289 -17 295 0 522 85 621 168 67 290 0 6
18 +17 85 0 522 569 295 82 618 400 0 414 +17 621 0 522 295 363 64 122 343 0 0 -1
7 363 0 522 621 116 119 568 324 0 0 +17 122 0 549 622 620 119 621 343 0 348 +16
 343 665 575 ?122 349 309 354 349 349 1 81 1 575 872 30 343 0 0 359 351 623 81 1
 359 871 30 349 0 0 624 575 625 82 3 623 18 9 1 81 1 624 870 30 385 0 0 388 359
 626 82 3 625 18 8 1 16 385 711 624 ?97 386 381 383 386 386 1 81 1 388 869 30 38
6 0 0 627 624 628 82 3 626 18 7 1 81 1 627 868 30 400 0 0 403 388 629 82 3 628 1
8 6 1 16 400 696 627 ?85 401 397 398 401 401 1 81 1 403 867 30 401 0 0 630 627 6
31 82 3 629 18 5 1 81 1 630 866 30 548 0 551 632 403 633 82 3 631 18 4 1 81 1 55
1 1308 467 548 630 0 556 547 634 81 1 632 865 30 541 0 547 635 630 636 82 3 633
 18 3 2 81 1 547 1309 467 541 632 0 551 539 637 81 1 635 864 30 528 0 531 638 63
2 639 82 3 636 18 2 2 81 1 531 1304 467 528 635 0 584 526 640 81 1 638 863 30 52
4 0 526 304 635 641 82 3 639 18 1 2 81 1 526 1305 467 524 638 0 531 534 642 81 1
 304 862 30 301 0 0 421 638 643 82 3 641 18 0 2 81 1 421 861 30 419 0 0 292 304
 644 82 3 643 18 3 1 81 1 292 860 30 285 0 0 288 421 645 82 3 644 18 2 1 81 1 28
8 859 30 286 0 0 646 292 647 82 3 645 18 1 1 81 1 646 602 30 535 0 556 648 288 6
49 82 3 647 18 0 1 81 1 556 1307 467 535 646 0 534 551 650 81 1 648 601 30 537 0
 539 332 646 651 82 3 649 14 2 2 81 1 539 1310 467 537 648 0 547 560 652 81 1 33
2 599 30 318 0 0 342 648 653 82 3 651 14 1 2 81 1 342 598 30 309 0 0 317 332 654
 82 3 653 14 14 1 81 1 317 597 30 315 0 0 308 342 655 82 3 654 14 13 1 81 1 308
 596 30 306 0 0 340 317 656 82 3 655 14 12 1 81 1 340 595 30 314 0 0 328 308 657
 82 3 656 14 11 1 81 1 328 594 30 326 0 0 345 340 658 82 3 657 14 10 1 81 1 345
 593 30 330 0 0 312 328 659 82 3 658 14 9 1 81 1 312 592 30 310 0 0 336 345 660
 82 3 659 14 8 1 81 1 336 591 30 325 0 0 347 312 661 82 3 660 14 7 1 81 1 347 59
0 30 319 0 0 362 336 662 82 3 661 14 6 1 81 1 362 587 30 324 0 0 355 347 663 82
 3 662 14 5 1 81 1 355 586 30 353 0 0 322 362 664 82 3 663 14 2 1 81 1 322 585 3
0 320 0 0 129 355 665 82 3 664 14 1 1 81 1 129 584 30 127 0 0 133 322 666 82 3 6
65 14 0 1 81 1 133 583 30 131 0 0 144 129 667 82 3 666 14 9 0 81 1 144 582 30 10
9 0 0 137 133 668 82 3 667 14 8 0 81 1 137 581 30 135 0 0 115 144 669 82 3 668 1
4 7 0 81 1 115 580 30 113 0 0 121 137 670 82 3 669 14 6 0 81 1 121 579 30 119 0
 0 70 115 671 82 3 670 14 5 0 81 1 70 578 30 68 0 0 125 121 672 82 3 671 14 4 0
 81 1 125 577 30 123 0 0 141 70 673 82 3 672 14 3 0 81 1 141 576 30 117 0 0 147
 125 674 82 3 673 14 2 0 81 1 147 575 30 118 0 0 675 141 676 82 3 674 14 1 0 81
 1 675 425 30 19 0 584 677 147 678 82 3 676 14 0 0 14 19 172 584 ?528 519 679 6
 7 +0 0 528 519 23 81 1 584 1303 467 19 675 0 520 531 680 81 1 677 424 30 527 0
 534 384 675 681 82 3 678 10 1 2 81 1 534 1306 467 527 677 0 526 556 682 81 1 38
4 423 30 381 0 0 399 677 683 82 3 681 10 0 2 81 1 399 422 30 397 0 0 380 384 684
 82 3 683 10 7 1 81 1 380 421 30 378 0 0 396 399 685 82 3 684 10 6 1 81 1 396 42
0 30 377 0 0 372 380 686 82 3 685 10 5 1 81 1 372 419 30 367 0 0 369 396 687 82
 3 686 10 4 1 81 1 369 418 30 357 0 0 366 372 688 82 3 687 10 3 1 81 1 366 417 3
0 364 0 0 375 369 689 82 3 688 10 2 1 81 1 375 416 30 373 0 0 111 366 690 82 3 6
89 10 1 1 81 1 111 415 30 90 0 0 103 375 691 82 3 690 10 0 1 81 1 103 414 30 101
 0 0 74 111 692 82 3 691 10 3 0 81 1 74 413 30 72 0 0 107 103 693 82 3 692 10 2
 0 81 1 107 412 30 105 0 0 694 74 695 82 3 693 10 1 0 81 1 694 224 30 1 0 696 39
2 107 697 82 3 695 10 0 0 81 1 696 1294 698 1 694 14 0 0 699 81 1 392 217 30 390
 0 0 406 694 700 82 3 697 6 0 3 81 1 406 216 30 382 0 0 413 392 701 82 3 700 6 1
1 1 81 1 413 209 30 411 0 0 417 406 702 82 3 701 6 10 1 81 1 417 208 30 415 0 0
 409 413 703 82 3 702 6 3 1 81 1 409 207 30 394 0 0 96 417 704 82 3 703 6 2 1 81
 1 96 205 30 94 0 0 84 409 705 82 3 704 6 1 1 81 1 84 204 30 82 0 0 99 96 706 82
 3 705 6 7 0 81 1 99 203 30 81 0 0 88 84 707 82 3 706 6 6 0 81 1 88 202 30 86 0
 0 92 99 708 82 3 707 6 5 0 81 1 92 201 30 76 0 0 79 88 709 82 3 708 6 4 0 81 1
 79 200 30 77 0 0 0 92 710 82 3 709 6 3 0 82 3 710 6 2 0 80 1 698 711 712 8038 0
 0 0 0 0 0 0 0 0 TTTTTTTTTTTTTFTFT10 81 1 14 1295 711 1 696 2 0 0 713 98 255 5 6
99 67 111 118 101 114 80 1 711 714 715 8017 0 0 0 0 0 0 0 0 0 TTTTTTTTTTTTTFTFT3
 84 255 5 713 Cover79 13 715 SDL/TYSA_NAME79 14 712 SDL/TYSA_UNAME83 3 682 .6156
86274509804 .811764705882353 .929411764705882 83 3 680 .615686274509804 .8117647
05882353 .929411764705882 15 679 171 0 716 19 0 17 716 0 679 376 410 72 80 377 0
 0 -17 376 0 679 93 716 105 75 373 0 615 +17 410 0 679 716 93 77 717 394 0 718 +
17 80 0 529 407 619 77 716 377 0 410 +17 407 0 529 618 80 82 718 382 0 0 +17 619
 0 529 80 616 72 112 364 0 716 -17 112 0 536 104 75 90 619 364 0 517 +15 536 371
 0 108 527 0 17 104 0 536 108 112 101 517 367 0 370 +17 75 0 536 112 108 72 376
 373 0 619 -17 517 0 511 89 613 90 104 367 0 616 -17 108 0 536 75 104 105 370 35
7 0 376 -17 718 0 515 717 414 77 407 382 0 0 -15 515 165 0 718 510 719 17 717 0
 515 393 718 76 410 394 0 720 -17 414 0 515 718 393 82 569 411 0 407 +17 393 0 5
15 414 717 94 720 390 0 0 +17 569 0 522 567 85 94 414 411 0 393 -17 720 0 532 61
5 97 76 393 390 0 0 -17 615 0 532 370 720 105 93 378 0 0 -17 97 0 532 720 564 94
 567 385 0 569 +17 93 0 679 410 376 76 615 378 0 717 +15 719 934 0 442 510 0 17
 442 0 719 256 49 203 260 257 0 0 -17 256 0 719 246 442 197 439 253 0 0 +17 49 0
 719 442 246 201 41 50 0 0 -17 260 0 435 436 206 201 442 257 0 49 +17 246 0 719
 49 256 29 721 241 0 0 +17 721 0 501 59 51 197 246 241 0 256 -15 501 1163 0 195
 479 0 17 59 0 501 195 721 54 199 252 0 25 -17 51 0 501 721 195 29 47 266 0 246
 +17 195 0 501 51 59 192 434 422 0 47 +17 47 0 46 183 41 192 51 266 0 427 -15 46
 1155 0 48 475 0 17 183 0 46 48 47 180 427 425 0 436 -17 48 0 46 41 183 201 436
 270 0 260 +17 434 0 431 432 427 54 195 422 0 0 -17 199 0 440 439 25 197 59 252
 0 721 +83 3 652 .615686274509804 .811764705882353 .929411764705882 83 3 650 .61
5686274509804 .811764705882353 .929411764705882 83 3 642 .615686274509804 .81176
4705882353 .929411764705882 83 3 640 .615686274509804 .811764705882353 .92941176
4705882 83 3 637 .615686274509804 .811764705882353 .929411764705882 83 3 634 .61
5686274509804 .811764705882353 .929411764705882 15 549 670 0 620 541 0 17 622 0
 549 722 122 118 348 319 0 0 -17 620 0 549 122 360 64 155 419 0 621 -17 348 0 54
5 568 323 119 622 319 0 363 +15 545 535 0 348 433 431 17 568 0 545 571 348 113 3
63 324 0 337 -17 323 0 545 348 571 118 723 320 0 622 +17 571 0 545 323 568 117 3
37 325 0 0 -17 723 0 557 724 148 117 323 320 0 571 -15 557 520 0 148 535 0 17 72
4 0 557 145 723 135 142 315 0 0 -17 148 0 557 723 145 118 722 306 0 323 +17 145
 0 557 148 724 109 313 310 0 725 -17 722 0 549 130 622 109 148 306 0 0 -17 130 0
 549 126 722 127 725 330 0 726 +17 126 0 549 360 130 123 727 309 0 356 +17 725 0
 542 313 726 109 130 330 0 722 -17 726 0 542 725 329 127 134 314 0 727 -15 542 5
38 0 329 537 0 17 329 0 542 726 313 131 138 326 0 728 +17 134 0 554 333 727 131
 726 314 0 329 +17 727 0 554 134 356 127 126 309 0 0 -15 554 523 0 134 448 729 1
7 356 0 554 727 333 123 612 353 0 730 +17 333 0 554 356 134 68 728 318 0 612 +17
 612 0 580 352 730 68 356 353 0 0 -17 730 0 580 612 300 123 360 349 0 0 -17 300
 0 580 730 404 152 167 296 0 360 +17 360 0 549 620 126 152 730 349 0 0 +17 728 0
 552 138 71 131 333 318 0 0 -17 138 0 552 142 728 135 329 326 0 313 -17 71 0 552
 728 305 68 352 338 0 333 -17 142 0 552 337 138 117 724 315 0 723 +17 313 0 542
 329 725 135 145 310 0 724 +15 729 917 0 221 448 0 17 221 0 729 218 731 176 187
 280 0 0 -17 218 0 729 275 221 188 179 219 0 0 +17 731 0 729 221 275 184 279 276
 0 0 -17 187 0 220 211 214 184 221 280 0 229 +17 229 0 488 279 231 184 211 230 0
 731 +15 488 1175 0 279 481 0 17 279 0 488 208 229 42 731 276 0 275 +17 231 0 48
8 229 208 209 233 235 0 226 -17 208 0 488 231 279 196 53 267 0 238 -17 233 0 232
 237 226 196 231 235 0 0 +17 53 0 506 191 238 42 208 267 0 279 +17 238 0 506 53
 39 196 237 239 0 233 +17 39 0 506 238 191 12 35 263 0 237 -17 191 0 506 39 53 1
88 275 223 0 35 -17 35 0 34 179 28 188 39 263 0 218 +17 275 0 729 731 218 42 191
 223 0 0 +17 155 0 562 167 67 152 620 419 0 300 +17 159 0 558 63 163 156 564 285
 0 565 +83 3 587 .615686274509804 .811764705882353 .929411764705882 83 3 585 .61
5686274509804 .811764705882353 .929411764705882 81 1 544 1300 467 433 450 0 449
 577 732 83 3 581 .615686274509804 .811764705882353 .929411764705882 81 1 450 12
76 30 433 0 544 512 444 733 81 1 449 1299 467 448 444 0 513 544 734 83 3 732 .61
5686274509804 .811764705882353 .929411764705882 81 1 513 1298 467 510 735 0 509
 449 736 83 3 734 .615686274509804 .811764705882353 .929411764705882 81 1 735 12
74 30 510 0 513 274 512 737 83 3 736 .615686274509804 .811764705882353 .92941176
4705882 81 1 274 1273 30 223 0 0 282 735 738 81 1 512 1275 30 17 0 509 735 450 7
39 82 3 737 22 0 2 82 3 739 22 1 2 81 1 282 1272 30 280 0 0 278 274 740 82 3 738
 22 15 1 81 1 278 1271 30 276 0 0 284 282 741 82 3 740 22 14 1 81 1 284 1270 30
 219 0 0 424 278 742 82 3 741 22 13 1 81 1 424 1269 30 422 0 0 428 284 743 82 3
 742 22 12 1 82 3 743 22 11 1 82 3 733 22 2 2 82 3 576 18 10 1 83 3 561 .6156862
74509804 .811764705882353 .929411764705882 83 3 514 .615686274509804 .8117647058
82353 .929411764705882 83 3 504 .615686274509804 .811764705882353 .9294117647058
82 83 3 497 .615686274509804 .811764705882353 .929411764705882 83 3 494 .6156862
74509804 .811764705882353 .929411764705882 83 3 490 .615686274509804 .8117647058
82353 .929411764705882 83 3 483 .615686274509804 .811764705882353 .9294117647058
82 83 3 474 .615686274509804 .811764705882353 .929411764705882 83 3 470 .6156862
74509804 .811764705882353 .929411764705882 82 3 451 22 3 2 79 9 447 BTI/DetId81
 1 426 1267 30 425 0 0 24 428 744 82 3 430 22 10 1 81 1 24 1266 30 11 0 0 251 42
6 745 82 3 744 22 9 1 81 1 251 1265 30 239 0 0 234 24 746 82 3 745 22 8 1 81 1 2
34 1264 30 227 0 0 244 251 747 82 3 746 22 7 1 81 1 244 1263 30 235 0 0 240 234
 748 82 3 747 22 6 1 82 3 748 22 5 1 81 1 261 1259 30 50 0 0 255 259 749 81 1 25
5 1258 30 253 0 0 44 261 750 81 1 259 1260 30 257 0 0 261 243 751 82 3 749 22 1
 1 81 1 243 1261 30 241 0 0 259 240 752 82 3 751 22 2 1 82 3 752 22 3 1 81 1 44
 1257 30 196 0 0 40 255 753 82 3 750 22 0 1 82 3 753 22 15 0 82 3 245 22 4 1 81
 1 31 1252 30 197 0 0 212 27 754 82 3 213 22 9 0 82 3 754 22 10 0 81 1 43 1255 3
0 209 0 0 32 40 755 81 1 32 1254 30 201 0 0 27 43 756 82 3 755 22 13 0 82 3 756
 22 12 0 82 3 45 22 14 0 82 3 33 22 11 0 19 18 182 0 1 0 10 6 0 S0 74 4 CI16 ind
ex_map_offset0 0 1 dCCZ20 16 5 0 0 498 696 14 2 489 0 0 0 0 0 0 0 0 0 0 0 0 0 0
 0 80 1 13 467 757 8040 0 0 0 0 3 5 0 0 0 TTTFFFFFFFFFFFFFF2 83 3 15 .6156862745
09804 .811764705882353 .929411764705882 79 17 757 SDL/TYSA_COLOUR_21 0 
