**ABCDEFGHIJKLMNOPQRSTUVWXYZabcdefghijklmnopqrstuvwxyz**************************
**PARASOLID !"#$%&'()*+,-./:;<=>?@[\]^_`{|}~0123456789**************************
**PART1;
MC=unknown;
MC_MODEL=unknown;
MC_ID=unknown;
OS=unknown;
OS_RELEASE=unknown;
FRU=Parasolid 36.0.180;
APPL=Onshape;
SITE=unknown;
USER=unknown;
FORMAT=text;
GUISE=transmit;
KEY=BTGapi::writeModels_.xmt;
FILE=BTGapi::writeModels_.xmt;
DATE=2024-07-04T09:21:30 (UTC);
**PART2;
SCH=SCH_3600180_36001;
USFLD_SIZE=0;
**PART3;
**END_OF_HEADER*****************************************************************
T51 : TRANSMIT FILE created by modeller version 360018023 SCH_3600180_36001_1300
6231 0 12 36 CCCI7 lattice222 0 CCCI4 mesh1006 0 I8 polyline1008 0 CCCCCCCDI5 ow
ner1040 0 CCCI16 boundary_lattice222 0 CCCI13 boundary_mesh1006 0 I17 boundary_p
olyline1008 0 CCCA16 index_map_offset0 0 1 dA9 index_map82 0 A17 node_id_index_m
ap82 0 A20 schema_embedding_map82 0 A5 child12 0 A14 lowest_node_id0 0 1 dA16 me
sh_offset_data206 0 Z1 909 2 3 0 0 0 0 0 0 0 1e3 1e-8 0 4 5 1 0 1 2 6 0 7 8 9 0
 0 10 11 12 0 0 0 0 0 0 0 81 255 1 2 893 13 1 14 0 0 0 15 70 11 CI9 list_type0 0
 1 uI10 notransmit0 0 1 lCCCDCCDI12 finger_index0 0 1 dI12 finger_block1012 0 CZ
3 0 4 T1 0 0 5 20 1 16 16 13 255 6 181 0 1 0 17 0 0 18 0 50 255 7 176 0 19 20 0
 0 +.12 .0982299008220434 -.00255437195301055 0 1 0 1 0 0 31 255 8 671 0 11 21 0
 0 +.003 -.001770099177956575 -.102010223031044 1 0 0 0 -1 0 .035 29 255 9 679 0
 12 22 0 .117 -.0217700991779566 -.0732874097983539 19 9 CCCCCCI5 frame230 0 CA5
 owner12 0 Z10 77 0 1 18 0 23 0 V0 16 255 11 669 24 ?25 0 26 8 0 0 1 18 255 12 6
75 27 28 0 29 9 ?1 81 1 27 885 30 12 0 0 31 32 33 17 255 28 0 34 35 36 12 37 38
 0 39 -18 29 664 31 40 12 41 22 ?1 81 1 31 884 30 29 0 0 42 27 43 17 40 0 44 25
 45 29 46 47 0 48 -18 41 451 49 50 29 51 52 ?1 29 22 668 0 29 52 9 .003 -.021770
0991779566 -.130733036263734 29 52 453 0 41 53 22 .117 -.0217700991779566 .02598
9776968956 29 53 256 0 51 54 52 0 .0982299008220434 -.02900066040456295 18 51 25
2 55 56 41 57 53 ?1 29 54 157 0 58 59 53 0 .0982299008220434 -.181010223031044 1
8 58 136 60 61 62 63 54 ?1 29 59 158 0 63 64 54 0 -.0217700991779566 -.181010223
031044 18 63 140 65 66 58 67 59 ?1 29 64 159 0 67 68 59 0 -.0217700991779566 .02
8989776968956 18 67 144 69 70 63 71 64 ?1 29 68 73 0 57 72 64 .12 .0982299008220
434 -.181010223031044 18 57 71 73 74 51 75 68 ?1 29 72 68 0 75 76 68 .12 -.02177
00991779566 -.181010223031044 18 75 66 77 78 57 62 72 ?1 29 76 63 0 62 79 72 .12
 -.0217700991779566 .028989776968956 18 62 61 80 81 75 58 76 ?1 29 79 404 0 82 8
3 76 .12 .0566705316305161 .028989776968956 18 82 366 84 85 71 86 79 ?1 29 83 40
6 0 86 87 79 .12 .0982299008220434 -.02900066040456295 18 86 358 88 89 82 90 83
 ?1 29 87 407 0 71 91 83 0 .0566705316305161 .028989776968956 18 71 356 92 93 67
 82 87 ?1 29 91 563 0 94 95 87 .117 -.0217700991779566 -.178010223031044 18 94 5
04 96 97 98 99 91 ?1 29 95 564 0 100 101 91 .003 -.0217700991779566 -.1780102230
31044 18 100 508 102 103 99 104 95 ?1 29 101 565 0 104 105 95 .003 -.02177009917
79566 .025989776968956 18 104 500 106 107 100 108 101 ?1 29 105 567 0 108 109 10
1 .003 .0551296549288228 .025989776968956 18 108 514 110 111 104 112 105 ?1 29 1
09 568 0 112 113 105 .117 .0551296549288228 .025989776968956 18 112 516 114 115
 108 116 109 ?1 29 113 569 0 116 117 109 .117 .0952299008220434 -.02996465264273
315 18 116 510 118 119 112 120 113 ?1 29 117 570 0 98 121 113 .117 .095229900822
0434 -.178010223031044 18 98 498 122 123 90 94 117 ?1 29 121 571 0 90 124 117 .0
03 .0952299008220434 -.02996465264273315 18 90 512 125 126 86 98 121 ?1 29 124 5
72 0 99 127 121 .003 .0952299008220434 -.178010223031044 18 99 506 128 129 94 10
0 124 ?1 29 127 845 0 120 130 124 .117 -.0217700991779566 -.130733036263734 18 1
20 799 32 35 116 131 127 ?1 29 130 846 0 131 132 127 .003 -.0217700991779566 -.0
732874097983539 18 131 800 42 25 120 133 130 ?1 29 132 848 0 133 134 130 .12 -.0
217700991779566 -.0732874097983539 18 133 804 135 36 131 136 132 ?1 29 134 849 0
 136 137 132 .12 -.0217700991779566 -.130733036263734 18 136 798 138 139 133 140
 134 ?1 29 137 850 0 140 141 134 0 -.0217700991779566 -.0732874097983539 18 140
 797 142 143 136 144 137 ?1 29 141 851 0 144 0 137 0 -.0217700991779566 -.130733
036263734 18 144 803 145 45 140 0 141 ?1 81 1 145 880 30 144 0 0 142 135 146 17
 45 0 44 40 143 144 147 148 0 46 -15 255 44 820 0 45 149 0 17 143 0 44 45 25 140
 150 151 0 147 -17 147 0 152 153 154 140 45 148 0 155 +16 148 774 156 ?147 47 15
7 158 0 0 1 17 46 0 159 66 160 144 40 47 0 154 +15 159 464 0 161 162 0 17 66 0 1
59 163 46 63 154 164 0 165 +17 160 0 159 46 166 29 103 167 0 0 -16 47 782 168 ?4
6 151 148 169 170 170 1 17 154 0 152 147 171 144 66 164 0 0 -15 152 263 0 154 17
2 0 17 171 0 152 154 61 63 173 174 0 0 +16 164 696 175 ?66 176 177 178 176 176 1
 81 1 175 868 30 164 0 0 179 180 181 16 176 120 179 ?155 174 164 178 164 164 1 1
6 177 124 182 ?70 164 183 184 0 0 1 30 255 178 154 0 176 184 185 0 +0 -.02177009
91779566 -.076010223031044 0 0 -1 30 184 155 0 177 186 178 0 +0 .076676086001098
2 .028989776968956 0 -1 0 30 185 153 0 174 178 187 0 +0 .0382299008220434 -.1810
10223031044 0 -1 0 16 174 116 188 ?171 189 176 185 0 0 1 30 187 177 0 190 185 19
1 0 +.12 .0982299008220434 -.181010223031044 -1 0 0 16 190 161 192 ?193 194 195
 187 0 0 1 30 191 178 0 194 187 21 0 +.12 -.0217700991779566 -.181010223031044 -
1 0 0 16 194 162 196 ?165 26 190 191 0 0 1 30 21 179 0 26 191 8 0 +.12 -.0217700
991779566 .028989776968956 -1 0 0 16 26 163 197 ?198 11 194 21 0 0 1 81 1 197 20
8 30 26 0 0 192 196 199 17 198 0 200 155 201 67 202 26 0 153 +15 200 722 0 155 1
7 0 17 155 0 200 150 198 140 153 176 0 0 +17 201 0 200 198 37 62 203 204 0 0 -17
 202 0 205 206 70 62 198 26 0 201 -17 153 0 152 207 147 67 155 176 0 0 -17 207 0
 152 208 153 71 70 177 0 0 -17 208 0 152 61 207 51 93 209 0 210 -17 70 0 205 202
 211 67 207 177 0 198 +15 205 283 0 211 212 0 17 211 0 205 70 206 71 85 213 0 20
7 -17 206 0 205 211 202 82 81 214 0 0 -17 85 0 215 89 93 82 211 213 0 216 +16 21
3 336 217 ?85 218 209 219 0 0 1 81 1 217 419 30 213 0 0 220 221 222 16 218 316 2
23 ?224 183 213 225 0 0 1 16 209 341 226 ?93 213 227 228 0 0 1 30 219 397 0 213
 229 225 0 +0 .0566705316305161 .028989776968956 1 0 0 30 229 400 0 227 228 219
 0 +.12 .0774502162262797 -544171780347824e-20 0 -.582514827456912 .812820075904
16 30 225 395 0 218 219 230 0 +0 .0982299008220434 -.02900066040456295 1 0 0 30
 230 13 0 189 225 231 0 +.12 .0982299008220434 -.00255437195301055 0 0 -1 16 189
 11 232 ?74 214 174 230 0 0 1 30 231 18 0 214 230 233 0 +.12 .0766760860010982 .
028989776968956 0 -1 0 16 214 16 234 ?81 235 189 231 0 0 1 30 233 33 0 204 231 2
36 0 +.12 -.0217700991779566 -.076010223031044 0 0 -1 16 204 31 180 ?203 195 235
 233 235 235 1 30 236 38 0 195 233 186 0 +.12 .0382299008220434 -.18101022303104
4 0 -1 0 16 195 36 237 ?238 190 204 236 0 0 1 30 186 156 0 183 236 184 0 +0 .098
2299008220434 -.00255437195301055 0 0 -1 16 183 130 221 ?61 177 218 186 0 0 1 81
 1 221 420 30 183 0 0 217 232 239 17 61 0 152 171 208 58 210 183 0 193 +17 210 0
 240 224 193 51 61 183 0 0 -17 193 0 240 210 74 58 241 190 0 173 +15 240 171 0 2
10 19 0 17 74 0 240 193 224 57 242 189 0 241 +17 241 0 243 238 173 57 193 190 0
 244 -17 173 0 243 241 165 58 171 174 0 0 -15 243 165 0 173 245 0 17 165 0 243 1
73 238 63 163 194 0 171 +17 238 0 243 165 241 75 244 195 0 0 +17 163 0 159 161 6
6 75 165 194 0 238 -17 161 0 159 246 163 136 78 235 0 0 -17 246 0 159 97 161 120
 139 170 0 247 +17 78 0 248 244 249 75 161 235 0 163 +16 235 711 250 ?78 204 214
 233 204 204 1 81 1 250 870 30 235 0 0 180 251 252 80 7 CCCCCDI12 legal_owners0
 17 1 lCZ1 30 253 254 9000 0 0 0 0 3 6 0 0 0 FFTFTFTTFFFFFFFFF1 81 1 180 869 30
 204 0 0 175 250 255 81 1 251 871 30 256 0 0 250 257 258 82 255 3 252 18 7 1 16
 256 486 251 ?259 260 167 261 167 167 1 81 1 257 872 30 167 0 0 251 262 263 82 3
 258 18 8 1 16 167 665 257 ?103 256 264 261 256 256 1 81 1 262 873 30 265 0 0 25
7 266 267 82 3 263 18 9 1 16 265 480 262 ?268 269 270 271 270 270 1 81 1 266 874
 30 270 0 0 262 272 273 82 3 267 18 10 1 16 270 681 266 ?97 265 274 271 265 265
 1 81 1 272 875 30 17 0 275 266 276 277 82 3 273 18 11 1 14 255 17 723 275 ?162
 0 200 6 278 -162 162 162 0 23 81 1 275 894 279 17 272 0 0 280 281 81 1 276 876
 30 162 0 280 272 282 283 82 3 277 18 4 2 14 162 168 280 ?19 17 159 6 278 -17 17
 19 17 23 81 1 280 895 279 162 276 0 275 284 285 81 1 282 877 30 149 0 286 276 2
87 288 82 3 283 18 5 2 14 149 821 286 ?289 290 44 6 291 -289 289 289 290 23 81 1
 286 908 279 149 282 0 292 293 294 81 1 287 878 30 289 0 293 282 142 295 82 3 28
8 18 6 2 14 289 813 293 ?0 149 34 6 291 -149 149 0 149 23 81 1 293 909 279 289 2
87 0 286 0 296 81 1 142 879 30 140 0 0 287 145 297 82 3 295 18 7 2 82 3 297 18 0
 0 80 1 279 0 298 8001 0 0 0 0 3 5 0 0 0 FFFFTFTFFFFFFFFFF2 83 255 3 296 .615686
274509804 .811764705882353 .929411764705882 79 255 15 298 SDL/TYSA_COLOUR15 34 8
16 0 35 289 0 51 255 291 836 0 289 0 299 0 +0 -.001770099177956575 -.10201022303
1044 1 0 0 .035 0 -1 0 13 23 78 0 0 0 0 0 0 10 17 50 299 546 0 300 291 301 0 +.1
2 .0952299008220434 -.00255437195301055 0 1 0 1 0 0 14 300 518 302 ?303 304 305
 6 299 -0 0 303 304 23 50 301 545 0 303 299 306 0 +.12 .0766760860010982 .025989
776968956 0 0 -1 0 1 0 14 303 521 307 ?308 300 309 6 301 +0 0 308 300 23 50 306
 544 0 308 301 310 0 +.117 .0382299008220434 -.076010223031044 1 0 0 0 0 -1 14 3
08 524 311 ?312 303 313 6 306 -0 0 312 303 23 50 310 543 0 312 306 314 0 +.003 .
0382299008220434 -.076010223031044 1 0 0 0 0 -1 14 312 527 315 ?316 308 317 6 31
0 +0 0 316 308 23 50 314 542 0 316 310 318 0 +.12 .0382299008220434 -.1780102230
31044 0 0 -1 0 1 0 14 316 533 319 ?290 312 320 6 314 -0 0 290 312 23 50 318 541
 0 290 314 321 0 +0 .0750117559985673 -.001752986200174215 0 .81282007590416 .58
2514827456912 0 -.582514827456912 .81282007590416 14 290 536 292 ?149 316 322 6
 318 -0 0 149 316 23 50 321 390 0 304 318 323 0 +0 .0774502162262797 -5441717803
47824e-20 0 .81282007590416 .582514827456912 0 -.582514827456912 .81282007590416
 14 304 368 324 ?300 245 215 6 321 +0 0 300 245 23 50 323 3 0 325 321 326 0 +.12
 .0382299008220434 -.076010223031044 1 0 0 0 0 -1 14 325 1 327 ?172 212 248 6 32
3 +0 0 172 212 23 50 326 152 0 172 323 328 0 +0 .0382299008220434 -.076010223031
044 1 0 0 0 0 -1 14 172 105 329 ?245 325 152 6 326 -0 0 245 325 23 50 328 173 0
 245 326 278 0 +.12 .0382299008220434 -.181010223031044 0 0 -1 0 1 0 14 245 166
 330 ?304 172 243 6 328 +0 0 304 172 23 50 278 174 0 162 328 20 0 +.12 -.0217700
991779566 -.076010223031044 0 1 0 1 0 0 50 20 175 0 212 278 7 0 +.12 .0766760860
010982 .028989776968956 0 0 -1 0 1 0 14 212 170 331 ?325 19 205 6 20 -0 0 325 19
 23 81 1 331 897 279 212 332 0 284 327 333 14 19 172 284 ?212 162 240 6 7 +0 0 2
12 162 23 81 1 284 896 279 19 334 0 280 331 335 81 1 334 425 30 19 0 284 336 332
 337 83 3 335 .615686274509804 .811764705882353 .929411764705882 81 1 336 424 30
 304 0 324 234 334 338 81 1 332 428 30 212 0 331 334 128 339 82 3 337 10 1 2 81
 1 128 575 30 99 0 0 332 122 340 82 3 339 10 4 2 81 1 122 576 30 98 0 0 128 106
 341 82 3 340 14 0 0 81 1 106 577 30 104 0 0 122 49 342 82 3 341 14 1 0 81 1 49
 578 30 41 0 0 106 102 343 82 3 342 14 2 0 81 1 102 579 30 100 0 0 49 96 344 82
 3 343 14 3 0 81 1 96 580 30 94 0 0 102 118 345 82 3 344 14 4 0 81 1 118 581 30
 116 0 0 96 125 346 82 3 345 14 5 0 81 1 125 582 30 90 0 0 118 114 347 82 3 346
 14 6 0 81 1 114 583 30 112 0 0 125 110 348 82 3 347 14 7 0 81 1 110 584 30 108
 0 0 114 349 350 82 3 348 14 8 0 81 1 349 585 30 351 0 0 110 352 353 82 3 350 14
 9 0 16 351 472 349 ?354 355 269 356 0 0 1 81 1 352 586 30 357 0 0 349 358 359 8
2 3 353 14 0 1 16 357 488 352 ?360 227 355 361 0 0 1 81 1 358 587 30 355 0 0 352
 362 363 82 3 359 14 1 1 16 355 492 358 ?166 357 351 364 0 0 1 81 1 362 590 30 2
60 0 0 358 365 366 82 3 363 14 2 1 16 260 484 362 ?367 368 256 369 0 0 1 81 1 36
5 591 30 269 0 0 362 370 371 82 3 366 14 5 1 16 269 490 365 ?372 351 265 373 0 0
 1 81 1 370 592 30 374 0 0 365 375 376 82 3 371 14 6 1 16 374 468 370 ?377 378 3
79 380 0 0 1 81 1 375 593 30 381 0 0 370 382 383 82 3 376 14 7 1 16 381 494 375
 ?111 379 384 385 0 0 1 81 1 382 594 30 384 0 0 375 386 387 82 3 383 14 8 1 16 3
84 476 382 ?388 381 38 389 0 0 1 81 1 386 595 30 379 0 0 382 390 391 82 3 387 14
 9 1 16 379 496 386 ?115 374 381 392 0 0 1 81 1 390 596 30 378 0 0 386 393 394 8
2 3 391 14 10 1 16 378 482 390 ?129 264 374 395 0 0 1 81 1 393 597 30 368 0 0 39
0 396 397 82 3 394 14 11 1 16 368 470 393 ?123 274 260 398 0 0 1 81 1 396 598 30
 264 0 0 393 399 400 82 3 397 14 12 1 16 264 474 396 ?107 167 378 401 0 0 1 81 1
 399 599 30 274 0 0 396 402 403 82 3 400 14 13 1 16 274 478 399 ?404 270 368 405
 0 0 1 81 1 402 600 30 316 0 319 399 406 407 82 3 403 14 14 1 81 1 319 906 279 3
16 402 0 315 292 408 81 1 406 601 30 290 0 292 402 409 410 82 3 407 14 0 2 81 1
 292 907 279 290 406 0 319 286 411 81 1 409 602 30 300 0 302 406 412 413 82 3 41
0 14 1 2 81 1 302 902 279 300 409 0 324 307 414 81 1 412 605 30 303 0 307 409 15
6 415 82 3 413 14 2 2 81 1 307 903 279 303 412 0 302 311 416 81 1 156 859 30 148
 0 0 412 417 418 82 3 415 14 5 2 81 1 417 860 30 157 0 0 156 24 419 82 3 418 18
 0 1 16 157 757 417 ?36 148 0 420 0 0 1 81 1 24 861 30 11 0 0 417 421 422 82 3 4
19 18 1 1 81 1 421 862 30 423 0 0 24 424 425 82 3 422 18 2 1 16 423 765 421 ?39
 170 151 426 0 0 1 81 1 424 863 30 172 0 329 421 427 428 82 3 425 18 3 1 81 1 32
9 899 279 172 424 0 327 330 429 81 1 427 864 30 325 0 327 424 430 431 82 3 428 1
8 0 2 81 1 327 898 279 325 427 0 331 329 432 81 1 430 865 30 312 0 315 427 433 4
34 82 3 431 18 1 2 81 1 315 905 279 312 430 0 311 319 435 81 1 433 866 30 308 0
 311 430 179 436 82 3 434 18 2 2 81 1 311 904 279 308 433 0 307 315 437 81 1 179
 867 30 176 0 0 433 175 438 82 3 436 18 3 2 82 3 438 18 4 1 83 3 437 .6156862745
09804 .811764705882353 .929411764705882 83 3 435 .615686274509804 .8117647058823
53 .929411764705882 83 3 432 .615686274509804 .811764705882353 .929411764705882
 81 1 330 900 279 245 439 0 329 324 440 83 3 429 .615686274509804 .8117647058823
53 .929411764705882 81 1 439 223 30 245 0 330 237 441 442 81 1 324 901 279 304 3
36 0 330 302 443 83 3 440 .615686274509804 .811764705882353 .929411764705882 83
 3 443 .615686274509804 .811764705882353 .929411764705882 81 1 237 217 30 195 0
 0 188 439 444 81 1 441 224 30 1 0 445 439 88 446 82 3 442 6 5 2 81 1 445 891 44
7 1 441 14 0 0 448 81 1 88 412 30 86 0 0 441 55 449 82 3 446 6 0 3 81 1 55 413 3
0 51 0 0 88 84 450 82 3 449 10 0 0 81 1 84 414 30 82 0 0 55 92 451 82 3 450 10 1
 0 81 1 92 415 30 71 0 0 84 223 452 82 3 451 10 2 0 81 1 223 416 30 218 0 0 92 2
26 453 82 3 452 10 3 0 81 1 226 417 30 209 0 0 223 220 454 82 3 453 10 0 1 81 1
 220 418 30 227 0 0 226 217 455 82 3 454 10 1 1 16 227 311 220 ?216 209 357 229
 0 0 1 82 3 455 10 2 1 17 216 0 248 81 242 82 89 227 0 206 +15 248 716 0 249 325
 0 17 81 0 248 203 216 62 206 214 0 202 +17 242 0 248 216 244 86 74 189 0 0 -17
 89 0 215 56 85 86 216 227 0 224 -15 215 371 0 89 304 0 17 56 0 215 93 89 51 224
 218 0 208 -17 224 0 240 74 210 86 56 218 0 242 +17 93 0 215 85 56 71 208 209 0
 211 +17 244 0 248 242 78 57 238 195 0 0 -17 203 0 248 249 81 133 201 204 0 0 +1
7 249 0 248 78 203 136 36 157 0 161 -17 36 0 34 28 139 133 249 157 0 37 +17 139
 0 34 36 35 136 246 170 0 249 -17 37 0 200 201 268 133 28 38 0 203 +17 268 0 200
 37 456 12 50 265 0 0 +16 38 768 457 ?37 384 170 458 151 151 1 81 1 457 888 30 3
8 0 0 459 168 460 16 170 771 461 ?246 38 423 169 47 47 1 30 458 840 0 151 169 42
6 0 +0 -.0217700991779566 -.0732874097983539 1 0 0 16 151 779 459 ?150 423 47 45
8 38 38 1 81 1 459 887 30 151 0 0 32 457 462 17 150 0 200 463 155 131 143 151 0
 259 +17 463 0 200 456 150 104 259 256 0 0 -17 259 0 317 48 107 131 463 256 0 0
 +15 317 670 0 48 312 0 17 48 0 317 103 259 29 25 11 0 160 -17 107 0 317 259 111
 104 464 264 0 360 +17 111 0 317 107 465 108 466 381 0 467 +17 464 0 309 115 360
 108 107 264 0 0 -17 360 0 309 464 404 104 456 357 0 463 +15 309 523 0 115 303 0
 17 404 0 309 360 115 41 468 274 0 456 +17 456 0 200 268 463 41 360 357 0 0 -17
 115 0 309 404 464 112 467 379 0 388 +17 468 0 313 119 50 112 404 274 0 0 -15 31
3 526 0 247 308 0 17 119 0 313 123 468 116 388 384 0 377 -17 50 0 313 468 39 41
 268 265 0 404 -17 39 0 313 50 247 12 35 423 0 268 +17 247 0 313 39 372 120 97 2
70 0 0 -17 35 0 34 139 28 120 39 423 0 246 -17 372 0 313 247 123 94 469 269 0 0
 +17 97 0 159 166 246 94 247 270 0 470 +17 166 0 159 160 97 100 470 355 0 0 +17
 470 0 320 469 367 94 166 355 0 372 -15 320 535 0 367 316 0 17 469 0 320 354 470
 98 372 269 0 0 -17 367 0 320 470 354 100 471 260 0 166 +17 354 0 320 367 469 99
 472 351 0 471 +17 471 0 317 465 103 99 367 260 0 0 -17 465 0 317 111 471 90 129
 378 0 0 -17 103 0 317 471 48 100 160 167 0 367 +17 129 0 305 472 126 99 465 378
 0 354 +15 305 520 0 129 300 0 17 472 0 305 473 129 98 354 351 0 469 -17 126 0 3
05 129 473 90 377 374 0 466 -17 473 0 305 126 472 116 123 368 0 0 -17 377 0 322
 388 466 116 126 374 0 473 +17 466 0 322 377 467 90 111 381 0 465 -15 322 538 0
 388 290 0 17 467 0 322 466 388 108 115 379 0 464 -17 388 0 322 467 377 112 119
 384 0 468 +17 123 0 313 372 119 98 473 368 0 472 +17 25 0 44 143 40 131 48 11 0
 150 +81 1 32 886 30 120 0 0 27 459 474 82 3 462 18 12 1 82 3 474 18 7 0 30 169
 841 0 47 420 458 0 -0 -.0217700991779566 -.130733036263734 1 0 0 31 426 839 0 4
23 458 395 0 +.117 -.001770099177956575 -.102010223031044 1 0 0 0 -1 0 .035 30 3
95 562 0 378 426 380 0 +.003 .0952299008220434 -.00255437195301055 0 0 -1 30 380
 561 0 374 395 398 0 +.12 .0952299008220434 -.02996465264273315 1 0 0 30 398 560
 0 368 380 356 0 +.117 .0952299008220434 -.00255437195301055 0 0 -1 30 356 559 0
 351 398 389 0 +.12 .0952299008220434 -.178010223031044 -1 0 0 30 389 558 0 384
 356 405 0 +.117 .0976901049264963 -.0333975322754306 0 -.582514827456912 .81282
007590416 30 405 557 0 274 389 373 0 +.117 .0766760860010982 .025989776968956 0
 -1 0 30 373 556 0 269 405 392 0 +.117 .0382299008220434 -.178010223031044 0 -1
 0 30 392 555 0 379 373 401 0 +.12 .0551296549288228 .025989776968956 1 0 0 30 4
01 554 0 264 392 385 0 +.003 .0766760860010982 .025989776968956 0 -1 0 30 385 55
3 0 381 401 369 0 +.003 .0976901049264963 -.0333975322754306 0 -.582514827456912
 .81282007590416 30 369 552 0 260 385 271 0 +.003 .0382299008220434 -.1780102230
31044 0 -1 0 30 271 551 0 265 369 361 0 +.117 -.0217700991779566 -.0760102230310
44 0 0 -1 30 361 550 0 357 271 261 0 +.12 -.0217700991779566 .025989776968956 -1
 0 0 30 261 549 0 256 361 364 0 +.003 -.0217700991779566 -.076010223031044 0 0 -
1 30 364 548 0 355 261 228 0 +.12 -.0217700991779566 -.178010223031044 -1 0 0 30
 228 403 0 209 364 229 0 +0 .0774502162262797 -544171780347824e-20 0 -.582514827
456912 .81282007590416 31 420 842 0 157 158 169 0 +.12 -.001770099177956575 -.10
2010223031044 1 0 0 0 -1 0 .035 31 158 843 0 148 0 420 0 +0 -.001770099177956575
 -.102010223031044 1 0 0 0 -1 0 .035 81 1 461 890 30 170 0 0 168 0 475 81 1 168
 889 30 47 0 0 457 461 476 82 3 475 18 15 1 82 3 476 18 14 1 82 3 460 18 13 1 80
 1 447 477 478 8038 0 0 0 0 0 0 0 0 0 TTTTTTTTTTTTTFTFT10 81 1 14 892 477 1 445
 2 0 0 479 98 255 6 448 80 97 114 116 32 49 80 1 477 480 481 8017 0 0 0 0 0 0 0
 0 0 TTTTTTTTTTTTTFTFT3 84 255 6 479 Part 179 13 481 SDL/TYSA_NAME79 14 478 SDL/
TYSA_UNAME81 1 188 216 30 174 0 0 196 237 482 82 3 444 6 11 1 81 1 196 209 30 19
4 0 0 197 188 483 82 3 482 6 10 1 82 3 483 6 3 1 83 3 416 .615686274509804 .8117
64705882353 .929411764705882 83 3 414 .615686274509804 .811764705882353 .9294117
64705882 83 3 411 .615686274509804 .811764705882353 .929411764705882 83 3 408 .6
15686274509804 .811764705882353 .929411764705882 81 1 234 423 30 214 0 0 182 336
 484 82 3 338 10 0 2 81 1 182 422 30 177 0 0 232 234 485 82 3 484 10 7 1 81 1 23
2 421 30 189 0 0 221 182 486 82 3 485 10 6 1 82 3 486 10 5 1 83 3 333 .615686274
509804 .811764705882353 .929411764705882 83 3 294 .615686274509804 .811764705882
353 .929411764705882 83 3 285 .615686274509804 .811764705882353 .929411764705882
 83 3 281 .615686274509804 .811764705882353 .929411764705882 82 3 255 18 6 1 79
 9 254 BTI/DetId82 3 239 10 4 1 82 3 222 10 3 1 81 1 192 207 30 190 0 0 77 197 4
87 82 3 199 6 2 1 81 1 77 205 30 75 0 0 65 192 488 82 3 487 6 1 1 81 1 65 204 30
 63 0 0 80 77 489 82 3 488 6 7 0 81 1 80 203 30 62 0 0 69 65 490 82 3 489 6 6 0
 81 1 69 202 30 67 0 0 73 80 491 82 3 490 6 5 0 81 1 73 201 30 57 0 0 60 69 492
 82 3 491 6 4 0 81 1 60 200 30 58 0 0 0 73 493 82 3 492 6 3 0 82 3 493 6 2 0 82
 3 181 18 5 1 81 1 135 881 30 133 0 0 145 138 494 82 3 146 18 1 0 81 1 138 882 3
0 136 0 0 135 42 495 82 3 494 18 2 0 81 1 42 883 30 131 0 0 138 31 496 82 3 495
 18 3 0 82 3 496 18 4 0 82 3 43 18 5 0 82 3 33 18 6 0 19 18 182 0 1 0 10 6 0 S0
 74 4 CI16 index_map_offset0 0 1 dCCZ20 16 5 0 0 461 445 14 2 293 0 0 0 0 0 0 0
 0 0 0 0 0 0 0 0 80 1 13 279 497 8040 0 0 0 0 3 5 0 0 0 TTTFFFFFFFFFFFFFF2 83 3
 15 .615686274509804 .811764705882353 .929411764705882 79 17 497 SDL/TYSA_COLOUR
_21 0 
