**ABCDEFGHIJKLMNOPQRSTUVWXYZabcdefghijklmnopqrstuvwxyz**************************
**PARASOLID !"#$%&'()*+,-./:;<=>?@[\]^_`{|}~0123456789**************************
**PART1;
MC=unknown;
MC_MODEL=unknown;
MC_ID=unknown;
OS=unknown;
OS_RELEASE=unknown;
FRU=Parasolid 36.0.180;
APPL=Onshape;
SITE=unknown;
USER=unknown;
FORMAT=text;
GUISE=transmit;
KEY=BTGapi::writeModels_.xmt;
FILE=BTGapi::writeModels_.xmt;
DATE=2024-07-04T09:42:48 (UTC);
**PART2;
SCH=SCH_3600180_36001;
USFLD_SIZE=0;
**PART3;
**END_OF_HEADER*****************************************************************
T51 : TRANSMIT FILE created by modeller version 360018023 SCH_3600180_36001_1300
6231 0 12 36 CCCI7 lattice222 0 CCCI4 mesh1006 0 I8 polyline1008 0 CCCCCCCDI5 ow
ner1040 0 CCCI16 boundary_lattice222 0 CCCI13 boundary_mesh1006 0 I17 boundary_p
olyline1008 0 CCCA16 index_map_offset0 0 1 dA9 index_map82 0 A17 node_id_index_m
ap82 0 A20 schema_embedding_map82 0 A5 child12 0 A14 lowest_node_id0 0 1 dA16 me
sh_offset_data206 0 Z1 1853 2 3 0 0 0 0 0 0 0 1e3 1e-8 0 4 5 1 0 1 2 6 0 7 8 9 0
 0 10 11 12 0 0 0 0 0 0 0 81 255 1 2 1826 13 1 14 0 0 0 15 70 11 CI9 list_type0
 0 1 uI10 notransmit0 0 1 lCCCDCCDI12 finger_index0 0 1 dI12 finger_block1012 0
 CZ3 0 4 T1 0 0 6 20 1 16 16 13 255 6 181 0 1 0 17 0 0 18 0 50 255 7 1574 19 20
 21 0 0 -.005 .0766760860010982 .028989776968956 .707106781186548 0 -.7071067811
86548 0 -1 0 30 255 8 1528 0 11 22 0 0 +0 .0382299008220434 .023989776968956 0 1
 0 29 255 9 1515 0 12 23 0 0 .0602538266593017 .023989776968956 19 9 CCCCCCI5 fr
ame230 0 CA5 owner12 0 Z10 77 0 1 18 0 24 0 V0 16 255 11 1526 25 ?26 0 27 8 0 0
 1 18 255 12 1512 28 26 0 29 9 ?1 81 1 28 1591 30 12 0 0 31 32 33 17 255 26 0 34
 35 36 12 37 11 0 38 +18 29 1498 39 40 12 41 23 ?1 81 1 39 1596 30 29 0 0 42 43
 44 17 40 0 45 46 47 29 48 49 0 50 +18 41 1494 32 51 29 52 53 ?1 29 23 1501 0 29
 53 9 .115 .0566705316305161 .028989776968956 29 53 1497 0 41 54 23 .005 .056670
5316305161 .028989776968956 29 54 1483 0 52 55 53 .005 -.0217700991779566 .02898
9776968956 18 52 1480 56 57 41 58 54 ?1 29 55 1479 0 58 59 54 .115 -.02177009917
79566 .028989776968956 18 58 1476 60 61 52 62 55 ?1 29 59 1475 0 62 63 55 0 -.02
17700991779566 .023989776968956 18 62 1472 64 65 58 66 59 ?1 29 63 1466 0 66 67
 59 .12 -.0217700991779566 .023989776968956 18 66 1463 43 68 62 69 63 ?1 29 67 1
462 0 69 70 63 .12 .0602538266593017 .023989776968956 18 69 1459 42 71 66 72 67
 ?1 29 70 956 0 72 73 67 .03814797103405 .02421318551525475 .028989776968956 18
 72 954 74 75 69 76 70 ?1 29 73 938 0 76 77 70 .03814797103405 .0042131855152547
35 -.181010223031044 18 76 936 78 79 72 80 73 ?1 29 77 921 0 80 81 73 .038147971
03405 .004213185515254735 .025989776968956 18 80 919 82 83 76 84 77 ?1 29 81 897
 0 84 85 77 .03814797103405 .02421318551525475 -.178010223031044 18 84 895 86 87
 80 88 81 ?1 29 85 679 0 88 89 81 .117 -.0217700991779566 -.0732874097983539 18
 88 675 90 91 84 92 85 ?1 29 89 668 0 92 93 85 .003 -.0217700991779566 -.1307330
36263734 18 92 664 94 95 88 96 89 ?1 29 93 453 0 96 97 89 .117 -.021770099177956
6 .025989776968956 18 96 451 98 99 92 100 93 ?1 29 97 256 0 100 101 93 0 .098229
9008220434 -.02900066040456295 18 100 252 102 103 96 104 97 ?1 29 101 157 0 105
 106 97 0 .0982299008220434 -.181010223031044 18 105 136 107 108 109 110 101 ?1
 29 106 158 0 110 111 101 0 -.0217700991779566 -.181010223031044 18 110 140 112
 113 105 114 106 ?1 29 111 73 0 104 115 106 .12 .0982299008220434 -.181010223031
044 18 104 71 116 117 100 109 111 ?1 29 115 68 0 109 118 111 .12 -.0217700991779
566 -.181010223031044 18 109 66 119 120 104 105 115 ?1 29 118 406 0 114 121 115
 .12 .0982299008220434 -.02900066040456295 18 114 358 122 123 110 124 118 ?1 29
 121 563 0 125 126 118 .117 -.0217700991779566 -.178010223031044 18 125 504 127
 128 129 130 121 ?1 29 126 564 0 131 132 121 .003 -.0217700991779566 -.178010223
031044 18 131 508 133 134 130 135 126 ?1 29 132 565 0 135 136 126 .003 -.0217700
991779566 .025989776968956 18 135 500 137 138 131 139 132 ?1 29 136 567 0 139 14
0 132 .003 .0551296549288228 .025989776968956 18 139 514 141 142 135 143 136 ?1
 29 140 568 0 143 144 136 .117 .0551296549288228 .025989776968956 18 143 516 145
 146 139 147 140 ?1 29 144 569 0 147 148 140 .117 .0952299008220434 -.0299646526
4273315 18 147 510 149 150 143 151 144 ?1 29 148 570 0 129 152 144 .117 .0952299
008220434 -.178010223031044 18 129 498 153 154 124 125 148 ?1 29 152 571 0 124 1
55 148 .003 .0952299008220434 -.02996465264273315 18 124 512 156 157 114 129 152
 ?1 29 155 572 0 130 158 152 .003 .0952299008220434 -.178010223031044 18 130 506
 159 160 125 131 155 ?1 29 158 845 0 151 161 155 .117 -.0217700991779566 -.13073
3036263734 18 151 799 162 163 147 164 158 ?1 29 161 846 0 164 165 158 .003 -.021
7700991779566 -.0732874097983539 18 164 800 166 167 151 168 161 ?1 29 165 848 0
 168 169 161 .12 -.0217700991779566 -.0732874097983539 18 168 804 170 171 164 17
2 165 ?1 29 169 849 0 172 173 165 .12 -.0217700991779566 -.130733036263734 18 17
2 798 174 175 168 176 169 ?1 29 173 850 0 176 177 169 0 -.0217700991779566 -.073
2874097983539 18 176 797 178 179 172 180 173 ?1 29 177 851 0 180 181 173 0 -.021
7700991779566 -.130733036263734 18 180 803 182 183 176 184 177 ?1 29 181 1212 0
 184 185 177 .08314797103405 .02421318551525475 -.178010223031044 18 184 1110 18
6 187 180 188 181 ?1 29 185 1213 0 188 189 181 .08314797103405 .0242131855152547
5 .025989776968956 18 188 1108 190 191 184 192 185 ?1 29 189 1214 0 192 193 185
 .08314797103405 .004213185515254735 -.178010223031044 18 192 1114 194 195 188 1
96 189 ?1 29 193 1215 0 196 197 189 .08314797103405 .004213185515254735 .0259897
76968956 18 196 1113 198 199 192 200 193 ?1 29 197 1217 0 200 201 193 .038147971
03405 .02421318551525475 .025989776968956 18 200 1123 202 203 196 204 197 ?1 29
 201 1218 0 204 205 197 .03814797103405 .004213185515254735 -.178010223031044 18
 204 1118 206 207 200 208 201 ?1 29 205 1220 0 209 210 201 .03814797103405 .0242
1318551525475 -.181010223031044 18 209 1121 211 212 213 214 205 ?1 29 210 1222 0
 214 215 205 .08314797103405 .004213185515254735 -.181010223031044 18 214 1115 2
16 217 209 218 210 ?1 29 215 1223 0 218 219 210 .08314797103405 .024213185515254
75 -.181010223031044 18 218 1111 220 221 214 0 215 ?1 29 219 1225 0 208 222 215
 .03814797103405 .004213185515254735 .028989776968956 18 208 1130 223 224 204 22
5 219 ?1 29 222 1226 0 225 226 219 .08314797103405 .004213185515254735 .02898977
6968956 18 225 1128 227 228 208 213 222 ?1 29 226 1227 0 213 0 222 .083147971034
05 .02421318551525475 .028989776968956 18 213 1126 229 230 225 209 226 ?1 81 1 2
29 1251 30 213 0 0 220 211 231 17 230 0 232 75 191 213 233 234 0 235 -15 255 232
 1167 0 230 236 0 17 75 0 232 237 230 72 238 239 0 240 +17 191 0 232 230 237 188
 241 242 0 233 -17 233 0 243 199 235 188 230 234 0 244 +16 234 1060 245 ?233 246
 247 248 247 247 1 17 235 0 243 233 228 213 249 250 0 238 -15 243 1171 0 199 251
 0 17 228 0 243 235 199 225 252 253 0 254 -17 249 0 255 256 238 225 235 250 0 0
 +16 250 1066 257 ?249 258 239 259 0 0 1 17 238 0 255 249 260 213 75 239 0 0 -15
 255 970 0 238 17 0 17 260 0 255 238 256 72 261 262 0 0 -16 239 1088 263 ?75 250
 264 265 0 0 1 81 1 263 1262 30 239 0 0 266 267 268 16 264 1055 266 ?269 239 270
 271 0 0 1 30 265 1211 0 239 272 259 0 +.06064797103405 .02421318551525475 .0289
89776968956 -1 0 0 31 255 272 1439 0 273 0 265 0 +.1031677722930908 .09822990082
20434 -.0451043844223023 0 1 0 1 0 0 .00597422358018869 30 259 1210 0 250 265 27
4 0 +.08314797103405 .01421318551525474 .028989776968956 0 -1 0 30 274 1209 0 25
8 259 275 0 +.06064797103405 .004213185515254735 .028989776968956 -1 0 0 16 258
 1074 267 ?256 262 250 274 0 0 1 30 275 1208 0 262 274 276 0 +.03814797103405 .0
1421318551525474 .028989776968956 0 -1 0 16 262 1093 277 ?261 278 258 275 0 0 1
 30 276 1207 0 279 275 280 0 +.06064797103405 .02421318551525475 -.1810102230310
44 -1 0 0 16 279 1017 281 ?282 283 284 276 0 0 1 30 280 1206 0 283 276 285 0 +.0
8314797103405 .01421318551525474 -.181010223031044 0 -1 0 16 283 1098 286 ?287 2
70 279 280 0 0 1 30 285 1205 0 270 280 271 0 +.06064797103405 .00421318551525473
5 -.181010223031044 -1 0 0 16 270 1103 288 ?79 264 283 285 0 0 1 30 271 1204 0 2
64 285 289 0 +.03814797103405 .01421318551525474 -.181010223031044 0 -1 0 30 289
 1203 0 290 271 291 0 +.03814797103405 .02421318551525475 .028989776968956 0 0 -
1 16 290 1082 292 ?237 293 278 289 278 278 1 30 291 1202 0 294 289 295 0 +.03814
797103405 .004213185515254735 .028989776968956 0 0 -1 16 294 1079 296 ?83 297 29
3 291 293 293 1 30 295 1201 0 253 291 248 0 +.08314797103405 .004213185515254735
 .028989776968956 0 0 -1 16 253 1071 298 ?252 247 297 295 297 297 1 30 248 1200
 0 234 295 299 0 +.08314797103405 .02421318551525475 .028989776968956 0 0 -1 30
 299 1199 0 246 248 300 0 +.03814797103405 .0766760860010982 .025989776968956 0
 -1 0 16 246 1085 301 ?302 303 234 299 0 0 1 30 300 1198 0 303 299 304 0 +.12 .0
04213185515254735 .025989776968956 -1 0 0 16 303 1034 305 ?306 307 246 300 0 0 1
 30 304 1197 0 307 300 308 0 +.08314797103405 .0766760860010982 .025989776968956
 0 -1 0 16 307 1022 309 ?199 242 303 304 0 0 1 30 308 1196 0 242 304 310 0 +.12
 .02421318551525475 .025989776968956 -1 0 0 16 242 1063 311 ?241 312 307 308 0 0
 1 31 310 843 0 313 308 314 0 +0 -.001770099177956575 -.102010223031044 1 0 0 0
 -1 0 .035 16 313 774 315 ?316 317 312 310 0 0 1 31 314 842 0 312 310 318 0 +.12
 -.001770099177956575 -.102010223031044 1 0 0 0 -1 0 .035 16 312 757 319 ?320 31
3 242 314 0 0 1 30 318 841 0 317 314 321 0 -0 -.0217700991779566 -.1307330362637
34 1 0 0 16 317 782 322 ?323 324 313 318 325 325 1 30 321 840 0 324 318 326 0 +0
 -.0217700991779566 -.0732874097983539 1 0 0 16 324 779 327 ?328 329 317 321 330
 330 1 31 326 839 0 329 321 331 0 +.117 -.001770099177956575 -.102010223031044 1
 0 0 0 -1 0 .035 16 329 765 332 ?333 325 324 326 0 0 1 30 331 562 0 334 326 335
 0 +.003 .0952299008220434 -.00255437195301055 0 0 -1 16 334 482 336 ?160 337 33
8 331 0 0 1 30 335 561 0 338 331 339 0 +.12 .0952299008220434 -.0299646526427331
5 1 0 0 16 338 468 340 ?341 334 342 335 0 0 1 30 339 560 0 343 335 344 0 +.117 .
0952299008220434 -.00255437195301055 0 0 -1 16 343 470 345 ?154 346 347 339 0 0
 1 30 344 559 0 348 339 349 0 +.12 .0952299008220434 -.178010223031044 -1 0 0 16
 348 472 350 ?351 352 353 344 0 0 1 30 349 558 0 354 344 355 0 +.117 .0976901049
264963 -.0333975322754306 0 -.582514827456912 .81282007590416 16 354 476 356 ?35
7 358 330 349 0 0 1 30 355 557 0 346 349 359 0 +.117 .0766760860010982 .02598977
6968956 0 -1 0 16 346 478 360 ?361 362 343 355 0 0 1 30 359 556 0 353 355 363 0
 +.117 .0382299008220434 -.178010223031044 0 -1 0 16 353 490 364 ?365 348 366 35
9 0 0 1 30 363 555 0 342 359 367 0 +.12 .0551296549288228 .025989776968956 1 0 0
 16 342 496 368 ?146 338 358 363 0 0 1 30 367 554 0 337 363 369 0 +.003 .0766760
860010982 .025989776968956 0 -1 0 16 337 474 370 ?138 371 334 367 0 0 1 30 369 5
53 0 358 367 372 0 +.003 .0976901049264963 -.0333975322754306 0 -.58251482745691
2 .81282007590416 16 358 494 373 ?142 342 354 369 0 0 1 30 372 552 0 347 369 374
 0 +.003 .0382299008220434 -.178010223031044 0 -1 0 16 347 484 375 ?376 343 377
 372 0 0 1 30 374 551 0 366 372 378 0 +.117 -.0217700991779566 -.076010223031044
 0 0 -1 16 366 480 379 ?380 353 362 374 362 362 1 30 378 550 0 381 374 382 0 +.1
2 -.0217700991779566 .025989776968956 -1 0 0 16 381 488 383 ?384 385 352 378 0 0
 1 30 382 549 0 377 378 386 0 +.003 -.0217700991779566 -.076010223031044 0 0 -1
 16 377 486 387 ?388 347 371 382 371 371 1 30 386 548 0 352 382 389 0 +.12 -.021
7700991779566 -.178010223031044 -1 0 0 16 352 492 390 ?391 381 348 386 0 0 1 30
 389 403 0 392 386 393 0 +0 .0774502162262797 -544171780347824e-20 0 -.582514827
456912 .81282007590416 16 392 341 394 ?38 395 385 389 0 0 1 30 393 400 0 385 389
 396 0 +.12 .0774502162262797 -544171780347824e-20 0 -.582514827456912 .81282007
590416 16 385 311 397 ?398 392 381 393 0 0 1 30 396 397 0 395 393 399 0 +0 .0566
705316305161 .028989776968956 1 0 0 16 395 1495 400 ?50 401 392 396 0 0 1 30 399
 395 0 401 396 402 0 +0 .0982299008220434 -.02900066040456295 1 0 0 16 401 316 4
03 ?404 405 395 399 0 0 1 30 402 13 0 406 399 407 0 +.12 .0982299008220434 -.002
55437195301055 0 0 -1 16 406 11 408 ?117 409 410 402 0 0 1 30 407 33 0 411 402 4
12 0 +.12 -.0217700991779566 -.076010223031044 0 0 -1 16 411 1464 413 ?171 414 4
09 407 409 409 1 30 412 38 0 414 407 415 0 +.12 .0382299008220434 -.181010223031
044 0 -1 0 16 414 36 416 ?417 418 411 412 0 0 1 30 415 156 0 405 412 419 0 +0 .0
982299008220434 -.00255437195301055 0 0 -1 16 405 130 420 ?108 421 401 415 0 0 1
 30 419 154 0 422 415 423 0 +0 -.0217700991779566 -.076010223031044 0 0 -1 16 42
2 1473 424 ?179 410 421 419 421 421 1 30 423 153 0 410 419 425 0 +0 .03822990082
20434 -.181010223031044 0 -1 0 16 410 116 426 ?427 406 422 423 0 0 1 30 425 177
 0 418 423 428 0 +.12 .0982299008220434 -.181010223031044 -1 0 0 16 418 161 429
 ?430 431 414 425 0 0 1 30 428 178 0 431 425 432 0 +.12 -.0217700991779566 -.181
010223031044 -1 0 0 16 431 162 433 ?434 435 418 428 0 0 1 30 432 179 0 435 428 4
36 0 +.12 -.0217700991779566 .028989776968956 -1 0 0 16 435 1477 437 ?438 439 43
1 432 0 0 1 31 436 671 0 439 432 440 0 +.003 -.001770099177956575 -.102010223031
044 1 0 0 0 -1 0 .035 16 439 669 441 ?167 442 435 436 0 0 1 30 440 901 0 442 436
 443 0 +.03814797103405 .0382299008220434 -.178010223031044 0 -1 0 16 442 899 44
4 ?207 445 439 440 0 0 1 30 443 905 0 445 440 446 0 +.12 .004213185515254735 -.1
78010223031044 -1 0 0 16 445 903 447 ?448 449 442 443 0 0 1 30 446 909 0 449 443
 450 0 +.08314797103405 .0382299008220434 -.178010223031044 0 -1 0 16 449 907 45
1 ?452 453 445 446 0 0 1 30 450 912 0 453 446 454 0 +.12 .02421318551525475 -.17
8010223031044 -1 0 0 16 453 910 455 ?456 457 449 450 0 0 1 31 454 1389 0 284 450
 458 0 +.1031677722930908 .0952299008220434 -.0451043844223023 0 1 0 1 0 0 .0059
7422358018869 16 284 1405 459 ?460 279 273 454 0 0 1 30 458 1469 0 457 454 461 0
 +.12 -.0217700991779566 .023989776968956 0 -1 0 16 457 1467 462 ?463 464 453 45
8 0 0 1 30 461 1486 0 464 458 465 0 -.005 -.0217700991779566 .028989776968956 .7
07106781186548 0 .707106781186548 16 464 1484 466 ?65 467 457 461 0 0 1 30 465 1
491 0 467 461 468 0 +.12 -.0217700991779566 .023989776968956 -.707106781186548 0
 .707106781186548 16 467 1489 469 ?61 470 464 465 0 0 1 30 468 1504 0 470 465 47
1 0 +.005 .0766760860010982 .028989776968956 0 -1 0 16 470 1502 472 ?473 49 467
 468 0 0 1 30 471 1509 0 49 468 474 0 +.115 .0566705316305161 .028989776968956 0
 1 0 16 49 1507 475 ?40 476 470 471 0 0 1 30 474 1518 0 476 471 22 0 --.01444906
279852228 .0706088776386131 .00954071417043371 -.630742223680076 .45202709491160
6 -.630742223680076 16 476 1516 477 ?51 27 49 474 0 0 1 30 22 1523 0 27 474 8 0
 +.0867087724705759 .03639536863763015 .0572810044983801 .630742223680076 .45202
7094911606 -.630742223680076 16 27 1521 478 ?71 11 476 22 0 0 1 81 1 478 1603 30
 27 0 0 472 462 479 17 71 0 480 123 50 69 481 27 0 398 +15 480 371 0 50 482 0 17
 123 0 480 103 71 114 398 385 0 404 -17 50 0 480 71 51 29 46 395 0 481 +17 481 0
 483 48 484 29 71 27 0 0 -17 398 0 485 463 486 69 123 385 0 484 +15 485 716 0 39
8 487 0 17 463 0 485 171 398 66 484 457 0 488 +17 486 0 485 398 489 114 117 406
 0 0 -17 484 0 483 481 68 69 463 457 0 0 -15 483 1541 0 481 490 0 17 68 0 483 48
4 48 66 61 467 0 463 -17 48 0 483 68 481 58 40 49 0 0 -17 61 0 491 438 488 58 68
 467 0 47 +15 491 722 0 488 492 0 17 438 0 491 65 61 52 47 435 0 0 +17 488 0 491
 61 493 66 171 411 0 0 -17 47 0 45 40 473 58 438 435 0 48 -15 45 283 0 47 17 255
 17 473 0 45 47 46 52 494 470 0 438 +17 46 0 45 473 40 41 50 395 0 494 -17 494 0
 495 496 57 41 473 470 0 0 -15 495 1563 0 496 20 0 17 496 0 495 37 494 12 51 476
 0 0 -17 57 0 495 494 37 52 65 464 0 473 -17 37 0 495 57 496 62 26 11 0 0 -17 65
 0 491 179 438 62 57 464 0 36 +17 179 0 491 328 65 176 36 422 0 497 +17 36 0 34
 26 316 62 179 422 0 37 -15 34 263 0 36 498 0 17 316 0 34 36 499 176 183 313 0 0
 +17 499 0 34 316 427 180 113 421 0 0 -17 183 0 500 95 497 180 316 313 0 323 -15
 500 820 0 183 501 0 17 95 0 500 167 183 92 323 317 0 502 -17 497 0 500 183 167
 176 328 324 0 316 -17 323 0 503 113 504 180 95 317 0 499 +15 503 464 0 505 506
 0 17 113 0 503 507 323 110 499 421 0 434 +17 504 0 503 323 391 92 134 371 0 0 -
17 391 0 503 504 128 131 508 352 0 0 +17 134 0 509 510 502 131 504 371 0 376 +16
 371 665 511 ?134 377 337 382 377 377 1 81 1 511 872 30 371 0 0 387 379 512 80 7
 CCCCCDI12 legal_owners0 17 1 lCZ1 30 513 514 9000 0 0 0 0 3 6 0 0 0 FFTFTFTTFFF
FFFFFF1 81 1 387 871 30 377 0 0 515 511 516 81 1 379 873 30 366 0 0 511 517 518
 82 255 3 512 18 9 1 81 1 517 874 30 362 0 0 379 519 520 82 3 518 18 10 1 16 362
 681 517 ?128 366 346 374 366 366 1 81 1 519 876 30 506 0 521 517 522 523 82 3 5
20 18 11 1 14 255 506 168 521 ?524 492 503 6 525 -492 492 524 492 24 81 1 521 18
32 526 506 519 0 527 528 529 81 1 522 877 30 501 0 530 519 531 532 82 3 523 18 5
 2 14 501 821 530 ?533 534 500 6 535 -533 533 533 534 24 81 1 530 1841 526 501 5
22 0 536 537 538 81 1 531 878 30 533 0 537 522 178 539 82 3 532 18 6 2 14 533 81
3 537 ?540 501 541 6 535 -501 501 540 501 24 81 1 537 1842 526 533 531 0 530 542
 543 81 1 178 879 30 176 0 0 531 182 544 82 3 539 18 7 2 81 1 182 880 30 180 0 0
 178 170 545 82 3 544 18 0 0 81 1 170 881 30 168 0 0 182 174 546 82 3 545 18 1 0
 81 1 174 882 30 172 0 0 170 166 547 82 3 546 18 2 0 81 1 166 883 30 164 0 0 174
 94 548 82 3 547 18 3 0 81 1 94 884 30 92 0 0 166 90 549 82 3 548 18 4 0 81 1 90
 885 30 88 0 0 94 162 550 82 3 549 18 5 0 81 1 162 886 30 151 0 0 90 327 551 82
 3 550 18 6 0 81 1 327 887 30 324 0 0 162 552 553 82 3 551 18 7 0 81 1 552 888 3
0 330 0 0 327 322 554 82 3 553 18 12 1 16 330 768 552 ?493 354 325 321 324 324 1
 81 1 322 889 30 317 0 0 552 555 556 82 3 554 18 13 1 81 1 555 890 30 325 0 0 32
2 186 557 82 3 556 18 14 1 16 325 771 555 ?558 330 329 318 317 317 1 81 1 186 12
42 30 184 0 0 555 86 559 82 3 557 18 15 1 81 1 86 1243 30 84 0 0 186 194 560 82
 3 559 22 0 0 81 1 194 1244 30 192 0 0 86 206 561 82 3 560 22 1 0 81 1 206 1245
 30 204 0 0 194 190 562 82 3 561 22 2 0 81 1 190 1246 30 188 0 0 206 202 563 82
 3 562 22 3 0 81 1 202 1247 30 200 0 0 190 198 564 82 3 563 22 4 0 81 1 198 1248
 30 196 0 0 202 82 565 82 3 564 22 5 0 81 1 82 1249 30 80 0 0 198 220 566 82 3 5
65 22 6 0 81 1 220 1250 30 218 0 0 82 229 567 82 3 566 22 7 0 82 3 567 22 8 0 17
 558 0 503 128 505 151 175 325 0 568 +17 128 0 503 391 558 125 568 362 0 508 +17
 505 0 503 558 507 172 120 409 0 0 -17 175 0 541 320 163 172 558 325 0 569 -17 5
68 0 570 333 365 151 128 362 0 0 -15 570 526 0 568 571 0 17 333 0 570 99 568 88
 163 329 0 380 +17 365 0 570 568 154 125 572 353 0 0 +17 154 0 570 365 150 129 5
73 343 0 574 +17 572 0 575 351 508 129 365 353 0 0 -15 575 535 0 376 576 577 17
 351 0 575 376 572 130 574 348 0 510 +17 508 0 575 572 376 125 391 352 0 365 -17
 376 0 575 508 351 131 510 347 0 391 +17 510 0 509 578 134 130 376 347 0 0 -15 5
09 670 0 502 579 0 17 578 0 509 142 510 124 160 334 0 0 -17 142 0 509 138 578 13
9 580 358 0 581 +17 160 0 582 574 157 130 578 334 0 351 +15 582 520 0 160 583 0
 17 574 0 582 573 160 129 351 348 0 572 -17 157 0 582 160 573 124 341 338 0 580
 -17 573 0 582 157 574 147 154 343 0 0 -17 341 0 584 357 580 147 157 338 0 573 +
17 580 0 584 341 581 124 142 358 0 578 -15 584 538 0 357 534 0 17 581 0 584 580
 357 139 146 342 0 585 -17 357 0 584 581 341 143 150 354 0 586 +17 146 0 587 361
 585 143 581 342 0 357 +17 585 0 587 146 384 139 138 337 0 0 -15 587 523 0 146 5
88 589 17 384 0 587 585 361 135 590 381 0 591 +17 138 0 509 388 142 135 585 337
 0 384 +17 388 0 509 502 138 164 591 377 0 0 +17 502 0 509 134 388 92 167 439 0
 504 -17 591 0 491 590 328 135 388 377 0 0 -17 590 0 491 380 591 96 384 381 0 0
 -17 328 0 491 591 179 164 497 324 0 388 +17 380 0 491 493 590 88 99 366 0 0 +17
 493 0 491 488 380 168 91 330 0 0 +17 99 0 570 586 333 96 380 366 0 361 -17 586
 0 570 150 99 143 361 346 0 0 -17 361 0 587 384 146 96 586 346 0 590 +17 150 0 5
70 154 586 147 357 354 0 341 -17 91 0 541 163 320 88 493 330 0 333 -15 541 816 0
 163 533 0 17 163 0 541 175 91 151 333 329 0 558 -17 320 0 541 91 175 168 569 31
2 0 493 +17 569 0 485 120 171 172 320 312 0 505 -17 120 0 485 489 569 109 505 40
9 0 507 +17 171 0 485 569 463 168 488 411 0 320 +17 489 0 485 486 120 104 417 41
4 0 0 -16 409 711 515 ?120 411 406 407 411 411 1 17 507 0 503 505 113 109 434 43
1 0 417 -17 434 0 592 593 417 110 507 431 0 427 +17 417 0 592 434 594 109 489 41
4 0 0 +15 592 165 0 593 595 596 17 594 0 592 417 593 104 430 418 0 489 -17 593 0
 592 594 434 105 427 410 0 0 -17 430 0 597 598 117 105 594 418 0 593 +15 597 171
 0 598 524 0 17 598 0 597 404 430 100 108 405 0 0 -17 117 0 597 430 404 104 486
 406 0 594 +17 404 0 597 117 598 114 103 401 0 486 +17 103 0 480 38 123 100 404
 401 0 35 -17 38 0 480 51 103 12 35 392 0 496 +17 35 0 34 108 26 100 38 392 0 59
8 -17 108 0 34 427 35 105 598 405 0 430 +17 427 0 34 499 108 110 593 410 0 0 +17
 51 0 480 50 38 41 496 476 0 46 +14 524 172 528 ?487 506 599 6 600 +0 0 487 506
 24 81 1 528 1833 526 524 601 0 521 602 603 14 487 1 602 ?498 524 485 6 604 +0 0
 498 524 24 15 599 1395 0 605 524 597 50 600 176 0 524 606 21 0 +.12 .0982299008
220434 -.00255437195301055 0 1 0 1 0 0 13 24 78 0 0 0 0 0 0 10 17 14 17 170 607
 ?595 0 45 6 606 -0 0 595 0 24 81 1 607 1827 526 17 608 0 0 609 610 14 595 166 6
09 ?588 17 592 6 611 +0 0 588 17 24 50 606 175 0 17 525 600 0 +.12 .076676086001
0982 .028989776968956 0 0 -1 0 1 0 50 525 174 0 506 611 606 0 +.12 -.02177009917
79566 -.076010223031044 0 1 0 1 0 0 50 611 173 0 595 612 525 0 +.12 .03822990082
20434 -.181010223031044 0 0 -1 0 1 0 50 612 152 0 498 604 611 0 +0 .038229900822
0434 -.076010223031044 1 0 0 0 0 -1 14 498 105 613 ?482 487 34 6 612 -0 0 482 48
7 24 50 604 3 0 487 614 612 0 +.12 .0382299008220434 -.076010223031044 1 0 0 0 0
 -1 50 614 390 0 482 615 604 0 +0 .0774502162262797 -544171780347824e-20 0 .8128
2007590416 .582514827456912 0 -.582514827456912 .81282007590416 14 482 368 616 ?
583 498 480 6 614 +0 0 583 498 24 50 615 541 0 534 617 614 0 +0 .075011755998567
3 -.001752986200174215 0 .81282007590416 .582514827456912 0 -.582514827456912 .8
1282007590416 14 534 536 536 ?501 579 584 6 615 -0 0 501 579 24 50 617 542 0 576
 618 615 0 +.12 .0382299008220434 -.178010223031044 0 0 -1 0 1 0 14 576 533 619
 ?492 588 575 6 617 -0 0 492 588 24 50 618 543 0 579 620 617 0 +.003 .0382299008
220434 -.076010223031044 1 0 0 0 0 -1 14 579 527 621 ?534 571 509 6 618 +0 0 534
 571 24 50 620 544 0 571 622 618 0 +.117 .0382299008220434 -.076010223031044 1 0
 0 0 0 -1 14 571 524 623 ?579 583 570 6 620 -0 0 579 583 24 50 622 545 0 588 624
 620 0 +.12 .0766760860010982 .025989776968956 0 0 -1 0 1 0 14 588 521 625 ?576
 595 587 6 622 +0 0 576 595 24 50 624 546 0 583 535 622 0 +.12 .0952299008220434
 -.00255437195301055 0 1 0 1 0 0 14 583 518 626 ?571 482 627 6 624 -0 0 571 482
 24 51 255 535 836 0 533 628 624 0 +0 -.001770099177956575 -.102010223031044 1 0
 0 .035 0 -1 0 50 628 1190 0 236 629 535 0 +.06064797103405 .02421318551525475 .
028989776968956 0 -1 0 -1 0 0 14 236 1164 630 ?251 631 232 6 628 +631 631 251 63
1 24 50 629 1191 0 251 632 628 0 +.08314797103405 .01421318551525474 .0289897769
68956 1 0 0 0 -1 0 14 251 1168 633 ?634 236 243 6 629 -635 635 634 236 24 50 632
 1192 0 634 636 629 0 +.06064797103405 .004213185515254735 .028989776968956 0 -1
 0 -1 0 0 14 634 1172 637 ?638 251 639 6 632 -640 640 638 251 24 50 636 1193 0 6
38 641 632 0 +.03814797103405 .01421318551525474 .028989776968956 1 0 0 0 -1 0 1
4 638 1176 642 ?643 634 644 6 636 +540 540 643 634 24 51 641 1436 0 643 0 636 0
 +.1031677722930908 .0732299008220434 -.0451043844223023 0 1 0 .0059742235801886
9 1 0 0 14 643 1421 645 ?490 638 646 6 641 -0 0 490 638 24 81 1 645 1851 526 643
 647 0 642 648 649 14 490 1540 648 ?20 643 483 6 21 +0 0 20 643 24 15 646 1419 0
 650 643 651 17 650 0 646 650 650 0 605 273 0 0 +15 651 1420 0 652 643 0 17 652
 0 651 652 652 0 460 284 0 0 -17 460 0 627 460 460 0 652 284 0 0 +15 627 1387 0
 460 583 582 17 605 0 599 605 605 0 650 273 0 0 -16 273 1411 653 ?650 284 0 272
 0 0 1 81 1 653 1442 30 273 0 0 654 459 655 81 1 654 1293 30 638 0 642 656 653 6
57 81 1 459 1443 30 284 0 0 653 647 658 82 3 655 26 0 1 81 1 647 1444 30 643 0 6
45 459 601 659 82 3 658 26 1 1 81 1 601 1445 30 524 0 528 647 31 660 82 3 659 26
 0 2 81 1 31 1446 30 583 0 626 601 28 661 82 3 660 26 1 2 81 1 626 1837 526 583
 31 0 616 623 662 82 3 661 26 2 2 80 1 526 0 663 8001 0 0 0 0 3 5 0 0 0 FFFFTFTF
FFFFFFFFF2 81 1 616 1836 526 482 664 0 613 626 665 81 1 623 1838 526 571 666 0 6
26 621 667 83 255 3 662 .615686274509804 .811764705882353 .929411764705882 81 1
 666 866 30 571 0 623 668 669 670 81 1 621 1839 526 579 668 0 623 536 671 83 3 6
67 .615686274509804 .811764705882353 .929411764705882 81 1 668 865 30 579 0 621
 332 666 672 81 1 536 1840 526 534 673 0 621 530 674 83 3 671 .615686274509804 .
811764705882353 .929411764705882 81 1 673 601 30 534 0 536 360 315 675 83 3 674
 .615686274509804 .811764705882353 .929411764705882 81 1 360 599 30 346 0 0 370
 673 676 81 1 315 859 30 313 0 0 673 319 677 82 3 675 14 1 2 81 1 319 860 30 312
 0 0 315 441 678 82 3 677 18 0 1 81 1 441 861 30 439 0 0 319 332 679 82 3 678 18
 1 1 81 1 332 862 30 329 0 0 441 668 680 82 3 679 18 2 1 82 3 680 18 3 1 81 1 37
0 598 30 337 0 0 345 360 681 82 3 676 14 14 1 81 1 345 597 30 343 0 0 336 370 68
2 82 3 681 14 13 1 81 1 336 596 30 334 0 0 368 345 683 82 3 682 14 12 1 81 1 368
 595 30 342 0 0 356 336 684 82 3 683 14 11 1 81 1 356 594 30 354 0 0 373 368 685
 82 3 684 14 10 1 81 1 373 593 30 358 0 0 340 356 686 82 3 685 14 9 1 81 1 340 5
92 30 338 0 0 364 373 687 82 3 686 14 8 1 81 1 364 591 30 353 0 0 375 340 688 82
 3 687 14 7 1 81 1 375 590 30 347 0 0 390 364 689 82 3 688 14 6 1 81 1 390 587 3
0 352 0 0 383 375 690 82 3 689 14 5 1 81 1 383 586 30 381 0 0 350 390 691 82 3 6
90 14 2 1 81 1 350 585 30 348 0 0 141 383 692 82 3 691 14 1 1 81 1 141 584 30 13
9 0 0 145 350 693 82 3 692 14 0 1 81 1 145 583 30 143 0 0 156 141 694 82 3 693 1
4 9 0 81 1 156 582 30 124 0 0 149 145 695 82 3 694 14 8 0 81 1 149 581 30 147 0
 0 127 156 696 82 3 695 14 7 0 81 1 127 580 30 125 0 0 133 149 697 82 3 696 14 6
 0 81 1 133 579 30 131 0 0 98 127 698 82 3 697 14 5 0 81 1 98 578 30 96 0 0 137
 133 699 82 3 698 14 4 0 81 1 137 577 30 135 0 0 153 98 700 82 3 699 14 3 0 81 1
 153 576 30 129 0 0 159 137 701 82 3 700 14 2 0 81 1 159 575 30 130 0 0 408 153
 702 82 3 701 14 1 0 81 1 408 421 30 406 0 0 420 159 703 82 3 702 14 0 0 81 1 42
0 420 30 405 0 0 403 408 704 82 3 703 10 5 1 81 1 403 416 30 401 0 0 102 420 705
 82 3 704 10 4 1 81 1 102 413 30 100 0 0 122 403 706 82 3 705 10 0 1 81 1 122 41
2 30 114 0 0 707 102 708 82 3 706 10 1 0 81 1 707 224 30 1 0 709 416 122 710 82
 3 708 10 0 0 81 1 709 1824 711 1 707 14 0 0 712 81 1 416 217 30 414 0 0 426 707
 713 82 3 710 6 0 3 81 1 426 216 30 410 0 0 433 416 714 82 3 713 6 11 1 81 1 433
 209 30 431 0 0 429 426 715 82 3 714 6 10 1 81 1 429 207 30 418 0 0 119 433 716
 82 3 715 6 3 1 81 1 119 205 30 109 0 0 112 429 717 82 3 716 6 1 1 81 1 112 204
 30 110 0 0 116 119 718 82 3 717 6 7 0 81 1 116 201 30 104 0 0 107 112 719 82 3
 718 6 6 0 81 1 107 200 30 105 0 0 0 116 720 82 3 719 6 3 0 82 3 720 6 2 0 80 1
 711 721 722 8038 0 0 0 0 0 0 0 0 0 TTTTTTTTTTTTTFTFT10 81 1 14 1825 721 1 709 2
 0 0 723 98 255 5 712 67 111 118 101 114 80 1 721 724 725 8017 0 0 0 0 0 0 0 0 0
 TTTTTTTTTTTTTFTFT3 84 255 5 723 Cover79 255 13 725 SDL/TYSA_NAME79 14 722 SDL/T
YSA_UNAME82 3 672 18 2 2 81 1 669 868 30 421 0 0 666 515 726 82 3 670 18 3 2 16
 421 696 669 ?113 422 405 419 422 422 1 81 1 515 870 30 409 0 0 669 387 727 82 3
 726 18 5 1 82 3 727 18 7 1 81 1 664 1615 30 482 0 616 728 729 730 81 1 613 1835
 526 498 729 0 602 616 731 83 3 665 .615686274509804 .811764705882353 .929411764
705882 81 1 729 1616 30 498 0 613 664 732 733 81 1 602 1834 526 487 732 0 528 61
3 734 83 3 731 .615686274509804 .811764705882353 .929411764705882 81 1 732 1617
 30 487 0 602 729 735 736 83 3 734 .615686274509804 .811764705882353 .9294117647
05882 81 1 735 1618 30 492 0 527 732 608 737 82 3 736 27 4 2 14 492 723 527 ?506
 576 491 6 525 -506 506 506 576 24 81 1 527 1831 526 492 735 0 619 521 738 81 1
 608 1619 30 17 0 607 735 0 739 82 3 737 27 5 2 82 3 739 27 6 2 81 1 619 1830 52
6 576 740 0 625 527 741 83 3 738 .615686274509804 .811764705882353 .929411764705
882 81 1 740 1276 30 576 0 619 742 743 744 81 1 625 1829 526 588 743 0 609 619 7
45 83 3 741 .615686274509804 .811764705882353 .929411764705882 81 1 743 1277 30
 588 0 625 740 746 747 81 1 609 1828 526 595 742 0 607 625 748 83 3 745 .6156862
74509804 .811764705882353 .929411764705882 81 1 742 1274 30 595 0 609 301 740 74
9 83 3 748 .615686274509804 .811764705882353 .929411764705882 81 1 301 1273 30 2
46 0 0 309 742 750 82 3 749 22 0 2 81 1 309 1272 30 307 0 0 305 301 751 82 3 750
 22 15 1 81 1 305 1271 30 303 0 0 311 309 752 82 3 751 22 14 1 81 1 311 1270 30
 242 0 0 444 305 753 82 3 752 22 13 1 81 1 444 1269 30 442 0 0 451 311 754 82 3
 753 22 12 1 81 1 451 1268 30 449 0 0 447 444 755 82 3 754 22 11 1 81 1 447 1267
 30 445 0 0 455 451 756 82 3 755 22 10 1 81 1 455 1266 30 453 0 0 277 447 757 82
 3 756 22 9 1 81 1 277 1265 30 262 0 0 257 455 758 82 3 757 22 8 1 81 1 257 1264
 30 250 0 0 267 277 759 82 3 758 22 7 1 81 1 267 1263 30 258 0 0 263 257 760 82
 3 759 22 6 1 82 3 760 22 5 1 81 1 746 1278 30 247 0 0 743 245 761 82 3 747 22 3
 2 16 247 1014 746 ?221 234 253 248 234 234 1 81 1 245 1279 30 234 0 0 746 762 7
63 82 3 761 22 16 1 81 1 762 1280 30 278 0 0 245 292 764 82 3 763 22 17 1 16 278
 1052 762 ?212 290 262 289 290 290 1 81 1 292 1281 30 290 0 0 762 765 766 82 3 7
64 22 18 1 81 1 765 1282 30 297 0 0 292 298 767 82 3 766 22 19 1 16 297 1031 765
 ?217 253 294 295 253 253 1 81 1 298 1283 30 253 0 0 765 768 769 82 3 767 22 20
 1 81 1 768 1284 30 293 0 0 298 296 770 82 3 769 22 21 1 16 293 1043 768 ?771 29
4 290 291 294 294 1 81 1 296 1285 30 294 0 0 768 772 773 82 3 770 22 22 1 81 1 7
72 1286 30 631 0 774 296 775 776 82 3 773 22 23 1 14 631 1136 774 ?236 635 777 6
 628 +236 236 236 635 24 81 1 774 1846 526 631 772 0 778 630 779 81 1 775 1287 3
0 236 0 630 772 780 781 82 3 776 22 4 2 81 1 630 1847 526 236 775 0 774 633 782
 81 1 780 1288 30 640 0 783 775 784 785 82 3 781 22 5 2 14 640 1152 783 ?635 540
 786 6 632 -634 634 635 540 24 81 1 783 1844 526 640 780 0 542 778 787 81 1 784
 1289 30 634 0 637 780 788 789 82 3 785 22 6 2 81 1 637 1849 526 634 784 0 633 6
42 790 81 1 788 1290 30 635 0 778 784 791 792 82 3 789 22 7 2 14 635 1144 778 ?6
31 640 793 6 629 -251 251 631 640 24 81 1 778 1845 526 635 788 0 783 774 794 81
 1 791 1291 30 251 0 633 788 656 795 82 3 792 22 8 2 81 1 633 1848 526 251 791 0
 630 637 796 81 1 656 1292 30 540 0 542 791 654 797 82 3 795 22 9 2 14 540 1160
 542 ?640 533 798 6 636 +638 638 640 533 24 81 1 542 1843 526 540 656 0 537 783
 799 82 3 797 22 10 2 83 3 799 .615686274509804 .811764705882353 .92941176470588
2 15 798 1163 0 207 540 0 17 207 0 798 771 87 204 800 442 0 801 +17 771 0 798 80
2 207 76 801 293 0 269 +17 87 0 798 207 802 84 212 278 0 456 -17 800 0 577 803 4
48 84 207 442 0 0 -17 801 0 786 195 79 204 771 293 0 448 -15 786 1155 0 217 640
 0 17 195 0 786 217 801 192 448 445 0 804 -17 79 0 786 801 217 76 805 270 0 771
 +17 448 0 577 800 452 204 195 445 0 0 +15 577 911 0 803 576 0 17 452 0 577 448
 803 192 187 449 0 0 +17 803 0 577 452 800 184 456 453 0 0 -17 187 0 793 221 804
 184 452 449 0 806 -15 793 1147 0 221 635 0 17 221 0 793 287 187 218 806 247 0 8
07 +17 804 0 793 187 287 192 217 297 0 452 -17 806 0 777 456 807 184 221 247 0 8
03 -15 777 1139 0 456 631 0 17 456 0 777 212 806 84 803 453 0 800 +17 807 0 777
 806 212 218 282 279 0 808 -17 212 0 777 807 456 209 87 278 0 802 +17 282 0 596
 269 808 209 807 279 0 0 +17 808 0 596 282 805 218 287 283 0 0 -15 596 934 0 808
 595 0 17 805 0 596 808 269 214 79 270 0 0 -17 287 0 793 804 221 214 808 283 0 8
05 +17 269 0 596 805 282 76 802 264 0 0 +17 802 0 798 87 771 209 269 264 0 282 -
17 217 0 786 79 195 214 804 297 0 287 +83 3 796 .615686274509804 .81176470588235
3 .929411764705882 83 3 794 .615686274509804 .811764705882353 .929411764705882 8
1 1 642 1850 526 638 654 0 637 645 809 83 3 790 .615686274509804 .81176470588235
3 .929411764705882 83 3 809 .615686274509804 .811764705882353 .929411764705882 8
3 3 787 .615686274509804 .811764705882353 .929411764705882 83 3 782 .61568627450
9804 .811764705882353 .929411764705882 83 3 779 .615686274509804 .81176470588235
3 .929411764705882 82 3 744 22 2 2 82 3 733 27 3 2 81 1 728 1614 30 490 0 648 81
0 664 811 82 3 730 27 2 2 81 1 648 1852 526 490 728 0 645 812 813 81 1 810 1613
 30 20 0 812 413 728 814 82 3 811 27 1 2 14 20 1562 812 ?0 490 495 6 7 +0 0 0 49
0 24 81 1 812 1853 526 20 810 0 648 0 815 81 1 413 1612 30 411 0 0 424 810 816 8
2 3 814 27 0 2 81 1 424 1611 30 422 0 0 400 413 817 82 3 816 27 13 1 81 1 400 16
10 30 395 0 0 397 424 818 82 3 817 27 12 1 81 1 397 1609 30 385 0 0 394 400 819
 82 3 818 27 11 1 81 1 394 1608 30 392 0 0 437 397 820 82 3 819 27 10 1 81 1 437
 1607 30 435 0 0 475 394 821 82 3 820 27 9 1 81 1 475 1606 30 49 0 0 469 437 822
 82 3 821 27 8 1 81 1 469 1605 30 467 0 0 462 475 823 82 3 822 27 7 1 81 1 462 1
604 30 457 0 0 478 469 824 82 3 823 27 6 1 82 3 824 27 5 1 83 3 815 .61568627450
9804 .811764705882353 .929411764705882 83 3 813 .615686274509804 .81176470588235
3 .929411764705882 79 15 663 SDL/TYSA_COLOUR82 3 657 22 11 2 50 21 1552 825 490
 600 7 0 +.12 .0382299008220434 .023989776968956 .707106781186548 0 .70710678118
6548 0 1 0 81 2 825 1823 826 21 0 0 19 0 827 828 80 2 826 829 830 8044 0 0 0 0 3
 5 0 0 0 FFFFTFFFTTFFFFFFF3 2 81 2 19 1822 826 7 0 0 0 825 831 832 84 6 827 BAAA
AB83 3 828 0 .00707106781186548 .005 84 6 831 BAAAAB83 3 832 0 .0070710678118654
8 .005 79 17 830 SDL/TYSA_BLEND_ID83 3 649 .615686274509804 .811764705882353 .92
9411764705882 15 644 1179 0 240 638 0 17 240 0 644 261 203 72 237 290 0 260 -17
 261 0 644 83 240 208 260 262 0 256 +17 203 0 644 240 83 200 302 246 0 237 -17 2
37 0 232 191 75 200 240 290 0 241 +17 241 0 589 302 244 200 191 242 0 0 +15 589
 917 0 244 588 0 17 302 0 589 833 241 80 203 246 0 0 +17 244 0 589 241 833 188 1
99 307 0 0 -17 833 0 589 244 302 196 306 303 0 0 -17 199 0 243 228 233 196 244 3
07 0 252 +17 252 0 639 306 254 196 228 253 0 833 +15 639 1175 0 306 634 0 17 306
 0 639 224 252 80 833 303 0 302 +17 254 0 639 252 224 225 256 258 0 249 -17 224
 0 639 254 306 208 83 294 0 261 -17 256 0 255 260 249 208 254 258 0 0 +17 83 0 6
44 203 261 80 224 294 0 306 +83 3 610 .615686274509804 .811764705882353 .9294117
64705882 83 3 603 .615686274509804 .811764705882353 .929411764705882 17 167 0 50
0 497 95 164 502 439 0 328 +83 3 543 .615686274509804 .811764705882353 .92941176
4705882 83 3 538 .615686274509804 .811764705882353 .929411764705882 83 3 529 .61
5686274509804 .811764705882353 .929411764705882 82 3 516 18 8 1 79 9 514 BTI/Det
Id81 1 472 1602 30 470 0 0 466 478 834 82 3 479 27 4 1 81 1 466 1601 30 464 0 0
 25 472 835 82 3 834 27 3 1 81 1 25 1600 30 11 0 0 477 466 836 82 3 835 27 2 1 8
1 1 477 1599 30 476 0 0 60 25 837 82 3 836 27 1 1 81 1 60 1598 30 58 0 0 43 477
 838 82 3 837 27 0 1 81 1 43 1597 30 66 0 0 39 60 839 82 3 838 27 7 0 82 3 839 2
7 6 0 81 1 288 1259 30 270 0 0 281 286 840 81 1 281 1258 30 279 0 0 223 288 841
 81 1 286 1260 30 283 0 0 288 266 842 82 3 840 22 1 1 81 1 266 1261 30 264 0 0 2
86 263 843 82 3 842 22 2 1 82 3 843 22 3 1 81 1 223 1257 30 208 0 0 78 281 844 8
2 3 841 22 0 1 81 1 78 1256 30 76 0 0 227 223 845 82 3 844 22 15 0 81 1 227 1255
 30 225 0 0 216 78 846 82 3 845 22 14 0 81 1 216 1254 30 214 0 0 74 227 847 82 3
 846 22 13 0 81 1 74 1253 30 72 0 0 211 216 848 82 3 847 22 12 0 81 1 211 1252 3
0 209 0 0 229 74 849 82 3 848 22 11 0 82 3 849 22 10 0 82 3 268 22 4 1 82 3 231
 22 9 0 81 1 42 1595 30 69 0 0 56 39 850 81 1 56 1594 30 52 0 0 64 42 851 82 3 8
50 27 4 0 81 1 64 1593 30 62 0 0 32 56 852 82 3 851 27 3 0 81 1 32 1592 30 41 0
 0 28 64 853 82 3 852 27 2 0 82 3 853 27 1 0 82 3 44 27 5 0 82 3 33 27 0 0 19 18
 182 0 1 0 10 6 0 S0 74 4 CI16 index_map_offset0 0 1 dCCZ20 16 6 0 0 608 825 709
 14 2 812 0 0 0 0 0 0 0 0 0 0 0 0 0 0 80 1 13 526 854 8040 0 0 0 0 3 5 0 0 0 TTT
FFFFFFFFFFFFFF2 83 3 15 .615686274509804 .811764705882353 .929411764705882 79 17
 854 SDL/TYSA_COLOUR_21 0 
